<svg class="main-svg" xmlns="http://www.w3.org/2000/svg" xmlns:xlink="http://www.w3.org/1999/xlink" width="700" height="500" style="" viewBox="0 0 700 500"><rect x="0" y="0" width="700" height="500" style="fill: rgb(255, 255, 255); fill-opacity: 1;"/><defs id="defs-ce8d1b"><g class="clips"/><g class="gradients"/><g class="patterns"/></defs><g class="bglayer"/><g class="layer-below"><g class="imagelayer"/><g class="shapelayer"/></g><g class="cartesianlayer"/><g class="polarlayer"/><g class="smithlayer"/><g class="ternarylayer"/><g class="geolayer"/><g class="funnelarealayer"/><g class="pielayer"/><g class="iciclelayer"/><g class="treemaplayer"/><g class="sunburstlayer"/><g class="glimages"/><g class="parcatslayer" style="pointer-events: none;"><g class="trace parcats" transform="translate(80,100)"><g class="paths"><path class="path" stroke-opacity="1" fill="#636efa" fill-opacity="0.6" stroke="lightgray" stroke-width="0.2" d="M 40,32l16,0 C56,32 262,0 262,0l16,0 C278,0 484,36 484,36l16,0 l0,1.1606964178507104 l -16,0 C484,37.16069641785071 278,1.1606964178507104 278,1.1606964178507104l-16,0 C262,1.1606964178507104 56,33.16069641785071 56,33.16069641785071l-16,0 Z"/><path class="path" stroke-opacity="1" fill="#636efa" fill-opacity="0.6" stroke="lightgray" stroke-width="0.2" d="M 40,33.16069641785071l16,0 C56,33.16069641785071 262,1.1606964178507104 262,1.1606964178507104l16,0 C278,1.1606964178507104 484,183.88713227936762 484,183.88713227936762l16,0 l0,0.44106463878326996 l -16,0 C484,184.3281969181509 278,1.6017610566339804 278,1.6017610566339804l-16,0 C262,1.6017610566339804 56,33.601761056633975 56,33.601761056633975l-16,0 Z"/><path class="path" stroke-opacity="1" fill="#636efa" fill-opacity="0.6" stroke="lightgray" stroke-width="0.2" d="M 40,33.601761056633975l16,0 C56,33.601761056633975 262,1.6017610566339804 262,1.6017610566339804l16,0 C278,1.6017610566339804 484,241.12387432459477 484,241.12387432459477l16,0 l0,0.20892535521312788 l -16,0 C484,241.3327996798079 278,1.8106864118471082 278,1.8106864118471082l-16,0 C262,1.8106864118471082 56,33.8106864118471 56,33.8106864118471l-16,0 Z"/><path class="path" stroke-opacity="1" fill="#636efa" fill-opacity="0.6" stroke="lightgray" stroke-width="0.2" d="M 40,33.8106864118471l16,0 C56,33.8106864118471 262,16.983790274164498 262,16.983790274164498l16,0 C278,16.983790274164498 484,37.16069641785071 484,37.16069641785071l16,0 l0,0.7196317790674405 l -16,0 C484,37.88032819691815 278,17.70342205323194 278,17.70342205323194l-16,0 C262,17.70342205323194 56,34.53031819091454 56,34.53031819091454l-16,0 Z"/><path class="path" stroke-opacity="1" fill="#636efa" fill-opacity="0.6" stroke="lightgray" stroke-width="0.2" d="M 40,34.53031819091454l16,0 C56,34.53031819091454 262,17.70342205323194 262,17.70342205323194l16,0 C278,17.70342205323194 484,184.3281969181509 484,184.3281969181509l16,0 l0,0.18571142685611366 l -16,0 C484,184.513908345007 278,17.889133480088052 278,17.889133480088052l-16,0 C262,17.889133480088052 56,34.71602961777066 56,34.71602961777066l-16,0 Z"/><path class="path" stroke-opacity="1" fill="#636efa" fill-opacity="0.6" stroke="lightgray" stroke-width="0.2" d="M 40,34.71602961777066l16,0 C56,34.71602961777066 262,17.889133480088052 262,17.889133480088052l16,0 C278,17.889133480088052 484,241.3327996798079 484,241.3327996798079l16,0 l0,0.18571142685611366 l -16,0 C484,241.518511106664 278,18.074844906944165 278,18.074844906944165l-16,0 C262,18.074844906944165 56,34.901741044626775 56,34.901741044626775l-16,0 Z"/><path class="path" stroke-opacity="1" fill="#636efa" fill-opacity="0.6" stroke="lightgray" stroke-width="0.2" d="M 40,34.901741044626775l16,0 C56,34.901741044626775 262,245.07424454672807 262,245.07424454672807l16,0 C278,245.07424454672807 484,37.88032819691815 484,37.88032819691815l16,0 l0,4.526716029617771 l -16,0 C484,42.40704422653592 278,249.60096057634584 278,249.60096057634584l-16,0 C262,249.60096057634584 56,39.42845707424455 56,39.42845707424455l-16,0 Z"/><path class="path" stroke-opacity="1" fill="#636efa" fill-opacity="0.6" stroke="lightgray" stroke-width="0.2" d="M 40,39.42845707424455l16,0 C56,39.42845707424455 262,249.60096057634584 262,249.60096057634584l16,0 C278,249.60096057634584 484,184.513908345007 484,184.513908345007l16,0 l0,1.439263558134881 l -16,0 C484,185.95317190314188 278,251.04022413448072 278,251.04022413448072l-16,0 C262,251.04022413448072 56,40.86772063237943 56,40.86772063237943l-16,0 Z"/><path class="path" stroke-opacity="1" fill="#636efa" fill-opacity="0.6" stroke="lightgray" stroke-width="0.2" d="M 40,40.86772063237943l16,0 C56,40.86772063237943 262,251.04022413448072 262,251.04022413448072l16,0 C278,251.04022413448072 484,241.518511106664 484,241.518511106664l16,0 l0,1.4160496297778666 l -16,0 C484,242.93456073644185 278,252.45627376425858 278,252.45627376425858l-16,0 C262,252.45627376425858 56,42.2837702621573 56,42.2837702621573l-16,0 Z"/><path class="path" stroke-opacity="1" fill="#636efa" fill-opacity="0.6" stroke="lightgray" stroke-width="0.2" d="M 40,42.2837702621573l16,0 C56,42.2837702621573 262,287.01300780468284 262,287.01300780468284l16,0 C278,287.01300780468284 484,42.40704422653592 484,42.40704422653592l16,0 l0,3.574944966980188 l -16,0 C484,45.981989193516114 278,290.587952771663 278,290.587952771663l-16,0 C262,290.587952771663 56,45.85871522913749 56,45.85871522913749l-16,0 Z"/><path class="path" stroke-opacity="1" fill="#636efa" fill-opacity="0.6" stroke="lightgray" stroke-width="0.2" d="M 40,45.85871522913749l16,0 C56,45.85871522913749 262,290.587952771663 262,290.587952771663l16,0 C278,290.587952771663 484,185.95317190314188 484,185.95317190314188l16,0 l0,1.7178306984190514 l -16,0 C484,187.67100260156093 278,292.3057834700821 278,292.3057834700821l-16,0 C262,292.3057834700821 56,47.57654592755654 56,47.57654592755654l-16,0 Z"/><path class="path" stroke-opacity="1" fill="#636efa" fill-opacity="0.6" stroke="lightgray" stroke-width="0.2" d="M 40,47.57654592755654l16,0 C56,47.57654592755654 262,292.3057834700821 262,292.3057834700821l16,0 C278,292.3057834700821 484,242.93456073644185 484,242.93456073644185l16,0 l0,1.1606964178507104 l -16,0 C484,244.09525715429257 278,293.4664798879328 278,293.4664798879328l-16,0 C262,293.4664798879328 56,48.737242345407246 56,48.737242345407246l-16,0 Z"/><path class="path" stroke-opacity="1" fill="#636efa" fill-opacity="0.6" stroke="lightgray" stroke-width="0.2" d="M 40,48.737242345407246l16,0 C56,48.737242345407246 262,31.971182709625776 262,31.971182709625776l16,0 C278,31.971182709625776 484,45.981989193516114 484,45.981989193516114l16,0 l0,2.3678206924154495 l -16,0 C484,48.34980988593156 278,34.33900340204123 278,34.33900340204123l-16,0 C262,34.33900340204123 56,51.105063037822696 56,51.105063037822696l-16,0 Z"/><path class="path" stroke-opacity="1" fill="#636efa" fill-opacity="0.6" stroke="lightgray" stroke-width="0.2" d="M 40,51.105063037822696l16,0 C56,51.105063037822696 262,34.33900340204123 262,34.33900340204123l16,0 C278,34.33900340204123 484,187.67100260156093 484,187.67100260156093l16,0 l0,0.7660596357814689 l -16,0 C484,188.4370622373424 278,35.105063037822696 278,35.105063037822696l-16,0 C262,35.105063037822696 56,51.87112267360416 56,51.87112267360416l-16,0 Z"/><path class="path" stroke-opacity="1" fill="#636efa" fill-opacity="0.6" stroke="lightgray" stroke-width="0.2" d="M 40,51.87112267360416l16,0 C56,51.87112267360416 262,35.105063037822696 262,35.105063037822696l16,0 C278,35.105063037822696 484,244.09525715429257 484,244.09525715429257l16,0 l0,0.5107064238543126 l -16,0 C484,244.60596357814688 278,35.61576946167701 278,35.61576946167701l-16,0 C262,35.61576946167701 56,52.38182909745848 56,52.38182909745848l-16,0 Z"/><path class="path" stroke-opacity="1" fill="#636efa" fill-opacity="0.6" stroke="lightgray" stroke-width="0.2" d="M 40,52.38182909745848l16,0 C56,52.38182909745848 262,55.75665399239544 262,55.75665399239544l16,0 C278,55.75665399239544 484,48.34980988593156 484,48.34980988593156l16,0 l0,1.9267560536321793 l -16,0 C484,50.276565939563746 278,57.683410046027625 278,57.683410046027625l-16,0 C262,57.683410046027625 56,54.30858515109066 56,54.30858515109066l-16,0 Z"/><path class="path" stroke-opacity="1" fill="#636efa" fill-opacity="0.6" stroke="lightgray" stroke-width="0.2" d="M 40,54.30858515109066l16,0 C56,54.30858515109066 262,57.683410046027625 262,57.683410046027625l16,0 C278,57.683410046027625 484,188.4370622373424 484,188.4370622373424l16,0 l0,0.6035621372823694 l -16,0 C484,189.04062437462477 278,58.28697218330999 278,58.28697218330999l-16,0 C262,58.28697218330999 56,54.91214728837303 56,54.91214728837303l-16,0 Z"/><path class="path" stroke-opacity="1" fill="#636efa" fill-opacity="0.6" stroke="lightgray" stroke-width="0.2" d="M 40,54.91214728837303l16,0 C56,54.91214728837303 262,58.28697218330999 262,58.28697218330999l16,0 C278,58.28697218330999 484,244.60596357814688 484,244.60596357814688l16,0 l0,0.6035621372823694 l -16,0 C484,245.20952571542927 278,58.89053432059236 278,58.89053432059236l-16,0 C262,58.89053432059236 56,55.515709425655395 56,55.515709425655395l-16,0 Z"/><path class="path" stroke-opacity="1" fill="#636efa" fill-opacity="0.6" stroke="lightgray" stroke-width="0.2" d="M 40,55.515709425655395l16,0 C56,55.515709425655395 262,79.14748849309586 262,79.14748849309586l16,0 C278,79.14748849309586 484,50.276565939563746 484,50.276565939563746l16,0 l0,1.6481889133480088 l -16,0 C484,51.924754852911754 278,80.79567740644387 278,80.79567740644387l-16,0 C262,80.79567740644387 56,57.1638983390034 56,57.1638983390034l-16,0 Z"/><path class="path" stroke-opacity="1" fill="#636efa" fill-opacity="0.6" stroke="lightgray" stroke-width="0.2" d="M 40,57.1638983390034l16,0 C56,57.1638983390034 262,80.79567740644387 262,80.79567740644387l16,0 C278,80.79567740644387 484,189.04062437462477 484,189.04062437462477l16,0 l0,0.557134280568341 l -16,0 C484,189.5977586551931 278,81.3528116870122 278,81.3528116870122l-16,0 C262,81.3528116870122 56,57.721032619571744 56,57.721032619571744l-16,0 Z"/><path class="path" stroke-opacity="1" fill="#636efa" fill-opacity="0.6" stroke="lightgray" stroke-width="0.2" d="M 40,57.721032619571744l16,0 C56,57.721032619571744 262,81.3528116870122 262,81.3528116870122l16,0 C278,81.3528116870122 484,245.20952571542927 484,245.20952571542927l16,0 l0,0.6267760656393837 l -16,0 C484,245.83630178106864 278,81.9795877526516 278,81.9795877526516l-16,0 C262,81.9795877526516 56,58.34780868521113 56,58.34780868521113l-16,0 Z"/><path class="path" stroke-opacity="1" fill="#636efa" fill-opacity="0.6" stroke="lightgray" stroke-width="0.2" d="M 40,58.34780868521113l16,0 C56,58.34780868521113 262,104.55793476085653 262,104.55793476085653l16,0 C278,104.55793476085653 484,51.924754852911754 484,51.924754852911754l16,0 l0,1.9499699819891936 l -16,0 C484,53.874724834900945 278,106.50790474284572 278,106.50790474284572l-16,0 C262,106.50790474284572 56,60.29777866720032 56,60.29777866720032l-16,0 Z"/><path class="path" stroke-opacity="1" fill="#636efa" fill-opacity="0.6" stroke="lightgray" stroke-width="0.2" d="M 40,60.29777866720032l16,0 C56,60.29777866720032 262,106.50790474284572 262,106.50790474284572l16,0 C278,106.50790474284572 484,189.5977586551931 484,189.5977586551931l16,0 l0,0.6964178507104263 l -16,0 C484,190.29417650590352 278,107.20432259355616 278,107.20432259355616l-16,0 C262,107.20432259355616 56,60.994196517910744 56,60.994196517910744l-16,0 Z"/><path class="path" stroke-opacity="1" fill="#636efa" fill-opacity="0.6" stroke="lightgray" stroke-width="0.2" d="M 40,60.994196517910744l16,0 C56,60.994196517910744 262,107.20432259355616 262,107.20432259355616l16,0 C278,107.20432259355616 484,245.83630178106864 484,245.83630178106864l16,0 l0,0.4874924954972984 l -16,0 C484,246.32379427656593 278,107.69181508905345 278,107.69181508905345l-16,0 C262,107.69181508905345 56,61.481689013408044 56,61.481689013408044l-16,0 Z"/><path class="path" stroke-opacity="1" fill="#636efa" fill-opacity="0.6" stroke="lightgray" stroke-width="0.2" d="M 40,61.481689013408044l16,0 C56,61.481689013408044 262,129.0166099659796 262,129.0166099659796l16,0 C278,129.0166099659796 484,53.874724834900945 484,53.874724834900945l16,0 l0,1.9035421252751652 l -16,0 C484,55.77826696017611 278,130.92015209125475 278,130.92015209125475l-16,0 C262,130.92015209125475 56,63.38523113868321 56,63.38523113868321l-16,0 Z"/><path class="path" stroke-opacity="1" fill="#636efa" fill-opacity="0.6" stroke="lightgray" stroke-width="0.2" d="M 40,63.38523113868321l16,0 C56,63.38523113868321 262,130.92015209125475 262,130.92015209125475l16,0 C278,130.92015209125475 484,190.29417650590352 484,190.29417650590352l16,0 l0,0.7660596357814689 l -16,0 C484,191.06023614168498 278,131.6862117270362 278,131.6862117270362l-16,0 C262,131.6862117270362 56,64.15129077446468 56,64.15129077446468l-16,0 Z"/><path class="path" stroke-opacity="1" fill="#636efa" fill-opacity="0.6" stroke="lightgray" stroke-width="0.2" d="M 40,64.15129077446468l16,0 C56,64.15129077446468 262,131.6862117270362 262,131.6862117270362l16,0 C278,131.6862117270362 484,246.32379427656593 484,246.32379427656593l16,0 l0,0.6499899939963978 l -16,0 C484,246.97378427056233 278,132.3362017210326 278,132.3362017210326l-16,0 C262,132.3362017210326 56,64.80128076846108 56,64.80128076846108l-16,0 Z"/><path class="path" stroke-opacity="1" fill="#636efa" fill-opacity="0.6" stroke="lightgray" stroke-width="0.2" d="M 40,64.80128076846108l16,0 C56,64.80128076846108 262,153.45207124274566 262,153.45207124274566l16,0 C278,153.45207124274566 484,55.77826696017611 484,55.77826696017611l16,0 l0,2.3678206924154495 l -16,0 C484,58.14608765259156 278,155.8198919351611 278,155.8198919351611l-16,0 C262,155.8198919351611 56,67.16910146087653 56,67.16910146087653l-16,0 Z"/><path class="path" stroke-opacity="1" fill="#636efa" fill-opacity="0.6" stroke="lightgray" stroke-width="0.2" d="M 40,67.16910146087653l16,0 C56,67.16910146087653 262,155.8198919351611 262,155.8198919351611l16,0 C278,155.8198919351611 484,191.06023614168498 484,191.06023614168498l16,0 l0,0.557134280568341 l -16,0 C484,191.61737042225332 278,156.37702621572944 278,156.37702621572944l-16,0 C262,156.37702621572944 56,67.72623574144487 56,67.72623574144487l-16,0 Z"/><path class="path" stroke-opacity="1" fill="#636efa" fill-opacity="0.6" stroke="lightgray" stroke-width="0.2" d="M 40,67.72623574144487l16,0 C56,67.72623574144487 262,156.37702621572944 262,156.37702621572944l16,0 C278,156.37702621572944 484,246.97378427056233 484,246.97378427056233l16,0 l0,0.6267760656393837 l -16,0 C484,247.6005603362017 278,157.00380228136882 278,157.00380228136882l-16,0 C262,157.00380228136882 56,68.35301180708426 56,68.35301180708426l-16,0 Z"/><path class="path" stroke-opacity="1" fill="#636efa" fill-opacity="0.6" stroke="lightgray" stroke-width="0.2" d="M 40,68.35301180708426l16,0 C56,68.35301180708426 262,177.93396037622574 262,177.93396037622574l16,0 C278,177.93396037622574 484,58.14608765259156 484,58.14608765259156l16,0 l0,3.8535121072643586 l -16,0 C484,61.99959975985592 278,181.7874724834901 278,181.7874724834901l-16,0 C262,181.7874724834901 56,72.20652391434862 56,72.20652391434862l-16,0 Z"/><path class="path" stroke-opacity="1" fill="#636efa" fill-opacity="0.6" stroke="lightgray" stroke-width="0.2" d="M 40,72.20652391434862l16,0 C56,72.20652391434862 262,181.7874724834901 262,181.7874724834901l16,0 C278,181.7874724834901 484,191.61737042225332 484,191.61737042225332l16,0 l0,1.2999799879927956 l -16,0 C484,192.91735041024612 278,183.0874524714829 278,183.0874524714829l-16,0 C262,183.0874524714829 56,73.50650390234142 56,73.50650390234142l-16,0 Z"/><path class="path" stroke-opacity="1" fill="#636efa" fill-opacity="0.6" stroke="lightgray" stroke-width="0.2" d="M 40,73.50650390234142l16,0 C56,73.50650390234142 262,183.0874524714829 262,183.0874524714829l16,0 C278,183.0874524714829 484,247.6005603362017 484,247.6005603362017l16,0 l0,1.0678407044226537 l -16,0 C484,248.66840104062436 278,184.15529317590554 278,184.15529317590554l-16,0 C262,184.15529317590554 56,74.57434460676407 56,74.57434460676407l-16,0 Z"/><path class="path" stroke-opacity="1" fill="#636efa" fill-opacity="0.6" stroke="lightgray" stroke-width="0.2" d="M 40,74.57434460676407l16,0 C56,74.57434460676407 262,218.10846507904745 262,218.10846507904745l16,0 C278,218.10846507904745 484,61.99959975985592 484,61.99959975985592l16,0 l0,2.251751050630378 l -16,0 C484,64.2513508104863 278,220.36021612967784 278,220.36021612967784l-16,0 C262,220.36021612967784 56,76.82609565739445 56,76.82609565739445l-16,0 Z"/><path class="path" stroke-opacity="1" fill="#636efa" fill-opacity="0.6" stroke="lightgray" stroke-width="0.2" d="M 40,76.82609565739445l16,0 C56,76.82609565739445 262,220.36021612967784 262,220.36021612967784l16,0 C278,220.36021612967784 484,192.91735041024612 484,192.91735041024612l16,0 l0,0.7428457074244547 l -16,0 C484,193.66019611767058 278,221.1030618371023 278,221.1030618371023l-16,0 C262,221.1030618371023 56,77.5689413648189 56,77.5689413648189l-16,0 Z"/><path class="path" stroke-opacity="1" fill="#636efa" fill-opacity="0.6" stroke="lightgray" stroke-width="0.2" d="M 40,77.5689413648189l16,0 C56,77.5689413648189 262,221.1030618371023 262,221.1030618371023l16,0 C278,221.1030618371023 484,248.66840104062436 484,248.66840104062436l16,0 l0,0.6964178507104263 l -16,0 C484,249.36481889133478 278,221.79947968781272 278,221.79947968781272l-16,0 C262,221.79947968781272 56,78.26535921552933 56,78.26535921552933l-16,0 Z"/><path class="path" stroke-opacity="1" fill="#636efa" fill-opacity="0.6" stroke="lightgray" stroke-width="0.2" d="M 40,86.26535921552932l16,0 C56,86.26535921552932 262,1.8106864118471082 262,1.8106864118471082l16,0 C278,1.8106864118471082 484,64.2513508104863 484,64.2513508104863l16,0 l0,0.7428457074244547 l -16,0 C484,64.99419651791075 278,2.553532119271563 278,2.553532119271563l-16,0 C262,2.553532119271563 56,87.00820492295377 56,87.00820492295377l-16,0 Z"/><path class="path" stroke-opacity="1" fill="#636efa" fill-opacity="0.6" stroke="lightgray" stroke-width="0.2" d="M 40,87.00820492295377l16,0 C56,87.00820492295377 262,2.553532119271563 262,2.553532119271563l16,0 C278,2.553532119271563 484,193.66019611767058 484,193.66019611767058l16,0 l0,0.34820892535521314 l -16,0 C484,194.0084050430258 278,2.901741044626776 278,2.901741044626776l-16,0 C262,2.901741044626776 56,87.35641384830897 56,87.35641384830897l-16,0 Z"/><path class="path" stroke-opacity="1" fill="#636efa" fill-opacity="0.6" stroke="lightgray" stroke-width="0.2" d="M 40,87.35641384830897l16,0 C56,87.35641384830897 262,2.901741044626776 262,2.901741044626776l16,0 C278,2.901741044626776 484,249.36481889133478 484,249.36481889133478l16,0 l0,0.2553532119271563 l -16,0 C484,249.62017210326192 278,3.157094256553932 278,3.157094256553932l-16,0 C262,3.157094256553932 56,87.61176706023613 56,87.61176706023613l-16,0 Z"/><path class="path" stroke-opacity="1" fill="#636efa" fill-opacity="0.6" stroke="lightgray" stroke-width="0.2" d="M 40,87.61176706023613l16,0 C56,87.61176706023613 262,18.074844906944165 262,18.074844906944165l16,0 C278,18.074844906944165 484,64.99419651791075 484,64.99419651791075l16,0 l0,0.9285571342805683 l -16,0 C484,65.92275365219132 278,19.00340204122473 278,19.00340204122473l-16,0 C262,19.00340204122473 56,88.5403241945167 56,88.5403241945167l-16,0 Z"/><path class="path" stroke-opacity="1" fill="#636efa" fill-opacity="0.6" stroke="lightgray" stroke-width="0.2" d="M 40,88.5403241945167l16,0 C56,88.5403241945167 262,19.00340204122473 262,19.00340204122473l16,0 C278,19.00340204122473 484,194.0084050430258 484,194.0084050430258l16,0 l0,0.2785671402841705 l -16,0 C484,194.28697218330996 278,19.281969181508902 278,19.281969181508902l-16,0 C262,19.281969181508902 56,88.81889133480087 56,88.81889133480087l-16,0 Z"/><path class="path" stroke-opacity="1" fill="#636efa" fill-opacity="0.6" stroke="lightgray" stroke-width="0.2" d="M 40,88.81889133480087l16,0 C56,88.81889133480087 262,19.281969181508902 262,19.281969181508902l16,0 C278,19.281969181508902 484,249.62017210326192 484,249.62017210326192l16,0 l0,0.34820892535521314 l -16,0 C484,249.96838102861713 278,19.630178106864115 278,19.630178106864115l-16,0 C262,19.630178106864115 56,89.16710026015608 56,89.16710026015608l-16,0 Z"/><path class="path" stroke-opacity="1" fill="#636efa" fill-opacity="0.6" stroke="lightgray" stroke-width="0.2" d="M 40,89.16710026015608l16,0 C56,89.16710026015608 262,252.45627376425858 262,252.45627376425858l16,0 C278,252.45627376425858 484,65.92275365219132 484,65.92275365219132l16,0 l0,4.317790674404643 l -16,0 C484,70.24054432659597 278,256.77406443866323 278,256.77406443866323l-16,0 C262,256.77406443866323 56,93.48489093456072 56,93.48489093456072l-16,0 Z"/><path class="path" stroke-opacity="1" fill="#636efa" fill-opacity="0.6" stroke="lightgray" stroke-width="0.2" d="M 40,93.48489093456072l16,0 C56,93.48489093456072 262,256.77406443866323 262,256.77406443866323l16,0 C278,256.77406443866323 484,194.28697218330996 484,194.28697218330996l16,0 l0,1.787472483490094 l -16,0 C484,196.07444466680005 278,258.5615369221533 278,258.5615369221533l-16,0 C262,258.5615369221533 56,95.27236341805082 56,95.27236341805082l-16,0 Z"/><path class="path" stroke-opacity="1" fill="#636efa" fill-opacity="0.6" stroke="lightgray" stroke-width="0.2" d="M 40,95.27236341805082l16,0 C56,95.27236341805082 262,258.5615369221533 262,258.5615369221533l16,0 C278,258.5615369221533 484,249.96838102861713 484,249.96838102861713l16,0 l0,1.4160496297778666 l -16,0 C484,251.384430658395 278,259.9775865519312 278,259.9775865519312l-16,0 C262,259.9775865519312 56,96.68841304782869 56,96.68841304782869l-16,0 Z"/><path class="path" stroke-opacity="1" fill="#636efa" fill-opacity="0.6" stroke="lightgray" stroke-width="0.2" d="M 40,96.68841304782869l16,0 C56,96.68841304782869 262,293.4664798879328 262,293.4664798879328l16,0 C278,293.4664798879328 484,70.24054432659597 484,70.24054432659597l16,0 l0,4.294576746047628 l -16,0 C484,74.53512107264359 278,297.76105663398044 278,297.76105663398044l-16,0 C262,297.76105663398044 56,100.98298979387631 56,100.98298979387631l-16,0 Z"/><path class="path" stroke-opacity="1" fill="#636efa" fill-opacity="0.6" stroke="lightgray" stroke-width="0.2" d="M 40,100.98298979387631l16,0 C56,100.98298979387631 262,297.76105663398044 262,297.76105663398044l16,0 C278,297.76105663398044 484,196.07444466680005 484,196.07444466680005l16,0 l0,1.4856914148489093 l -16,0 C484,197.56013608164895 278,299.2467480488294 278,299.2467480488294l-16,0 C262,299.2467480488294 56,102.46868120872523 56,102.46868120872523l-16,0 Z"/><path class="path" stroke-opacity="1" fill="#636efa" fill-opacity="0.6" stroke="lightgray" stroke-width="0.2" d="M 40,102.46868120872523l16,0 C56,102.46868120872523 262,299.2467480488294 262,299.2467480488294l16,0 C278,299.2467480488294 484,251.384430658395 484,251.384430658395l16,0 l0,1.555333199919952 l -16,0 C484,252.93976385831493 278,300.80208124874935 278,300.80208124874935l-16,0 C262,300.80208124874935 56,104.02401440864519 56,104.02401440864519l-16,0 Z"/><path class="path" stroke-opacity="1" fill="#636efa" fill-opacity="0.6" stroke="lightgray" stroke-width="0.2" d="M 40,104.02401440864519l16,0 C56,104.02401440864519 262,35.61576946167701 262,35.61576946167701l16,0 C278,35.61576946167701 484,74.53512107264359 484,74.53512107264359l16,0 l0,1.880328196918151 l -16,0 C484,76.41544926956175 278,37.49609765859516 278,37.49609765859516l-16,0 C262,37.49609765859516 56,105.90434260556334 56,105.90434260556334l-16,0 Z"/><path class="path" stroke-opacity="1" fill="#636efa" fill-opacity="0.6" stroke="lightgray" stroke-width="0.2" d="M 40,105.90434260556334l16,0 C56,105.90434260556334 262,37.49609765859516 262,37.49609765859516l16,0 C278,37.49609765859516 484,197.56013608164895 484,197.56013608164895l16,0 l0,0.6267760656393837 l -16,0 C484,198.18691214728833 278,38.122873724234545 278,38.122873724234545l-16,0 C262,38.122873724234545 56,106.53111867120273 56,106.53111867120273l-16,0 Z"/><path class="path" stroke-opacity="1" fill="#636efa" fill-opacity="0.6" stroke="lightgray" stroke-width="0.2" d="M 40,106.53111867120273l16,0 C56,106.53111867120273 262,38.122873724234545 262,38.122873724234545l16,0 C278,38.122873724234545 484,252.93976385831493 484,252.93976385831493l16,0 l0,0.6267760656393837 l -16,0 C484,253.5665399239543 278,38.74964978987393 278,38.74964978987393l-16,0 C262,38.74964978987393 56,107.15789473684212 56,107.15789473684212l-16,0 Z"/><path class="path" stroke-opacity="1" fill="#636efa" fill-opacity="0.6" stroke="lightgray" stroke-width="0.2" d="M 40,107.15789473684212l16,0 C56,107.15789473684212 262,58.89053432059236 262,58.89053432059236l16,0 C278,58.89053432059236 484,76.41544926956175 484,76.41544926956175l16,0 l0,2.0892535521312787 l -16,0 C484,78.50470282169303 278,60.979787872723634 278,60.979787872723634l-16,0 C262,60.979787872723634 56,109.2471482889734 56,109.2471482889734l-16,0 Z"/><path class="path" stroke-opacity="1" fill="#636efa" fill-opacity="0.6" stroke="lightgray" stroke-width="0.2" d="M 40,109.2471482889734l16,0 C56,109.2471482889734 262,60.979787872723634 262,60.979787872723634l16,0 C278,60.979787872723634 484,198.18691214728833 484,198.18691214728833l16,0 l0,0.7660596357814689 l -16,0 C484,198.95297178306978 278,61.7458475085051 278,61.7458475085051l-16,0 C262,61.7458475085051 56,110.01320792475488 56,110.01320792475488l-16,0 Z"/><path class="path" stroke-opacity="1" fill="#636efa" fill-opacity="0.6" stroke="lightgray" stroke-width="0.2" d="M 40,110.01320792475488l16,0 C56,110.01320792475488 262,61.7458475085051 262,61.7458475085051l16,0 C278,61.7458475085051 484,253.5665399239543 484,253.5665399239543l16,0 l0,0.8589153492095257 l -16,0 C484,254.42545527316383 278,62.604762857714626 278,62.604762857714626l-16,0 C262,62.604762857714626 56,110.8721232739644 56,110.8721232739644l-16,0 Z"/><path class="path" stroke-opacity="1" fill="#636efa" fill-opacity="0.6" stroke="lightgray" stroke-width="0.2" d="M 40,110.8721232739644l16,0 C56,110.8721232739644 262,81.9795877526516 262,81.9795877526516l16,0 C278,81.9795877526516 484,78.50470282169303 484,78.50470282169303l16,0 l0,2.1821092655593355 l -16,0 C484,80.68681208725236 278,84.16169701821093 278,84.16169701821093l-16,0 C262,84.16169701821093 56,113.05423253952374 56,113.05423253952374l-16,0 Z"/><path class="path" stroke-opacity="1" fill="#636efa" fill-opacity="0.6" stroke="lightgray" stroke-width="0.2" d="M 40,113.05423253952374l16,0 C56,113.05423253952374 262,84.16169701821093 262,84.16169701821093l16,0 C278,84.16169701821093 484,198.95297178306978 484,198.95297178306978l16,0 l0,0.6964178507104263 l -16,0 C484,199.6493896337802 278,84.85811486892136 278,84.85811486892136l-16,0 C262,84.85811486892136 56,113.75065039023417 56,113.75065039023417l-16,0 Z"/><path class="path" stroke-opacity="1" fill="#636efa" fill-opacity="0.6" stroke="lightgray" stroke-width="0.2" d="M 40,113.75065039023417l16,0 C56,113.75065039023417 262,84.85811486892136 262,84.85811486892136l16,0 C278,84.85811486892136 484,254.42545527316383 484,254.42545527316383l16,0 l0,0.5107064238543126 l -16,0 C484,254.93616169701815 278,85.36882129277568 278,85.36882129277568l-16,0 C262,85.36882129277568 56,114.26135681408849 56,114.26135681408849l-16,0 Z"/><path class="path" stroke-opacity="1" fill="#636efa" fill-opacity="0.6" stroke="lightgray" stroke-width="0.2" d="M 40,114.26135681408849l16,0 C56,114.26135681408849 262,107.69181508905345 262,107.69181508905345l16,0 C278,107.69181508905345 484,80.68681208725236 484,80.68681208725236l16,0 l0,1.9731839103462079 l -16,0 C484,82.65999599759857 278,109.66499899939966 278,109.66499899939966l-16,0 C262,109.66499899939966 56,116.2345407244347 56,116.2345407244347l-16,0 Z"/><path class="path" stroke-opacity="1" fill="#636efa" fill-opacity="0.6" stroke="lightgray" stroke-width="0.2" d="M 40,116.2345407244347l16,0 C56,116.2345407244347 262,109.66499899939966 262,109.66499899939966l16,0 C278,109.66499899939966 484,199.6493896337802 484,199.6493896337802l16,0 l0,0.6035621372823694 l -16,0 C484,200.25295177106258 278,110.26856113668202 278,110.26856113668202l-16,0 C262,110.26856113668202 56,116.83810286171706 56,116.83810286171706l-16,0 Z"/><path class="path" stroke-opacity="1" fill="#636efa" fill-opacity="0.6" stroke="lightgray" stroke-width="0.2" d="M 40,116.83810286171706l16,0 C56,116.83810286171706 262,110.26856113668202 262,110.26856113668202l16,0 C278,110.26856113668202 484,254.93616169701815 484,254.93616169701815l16,0 l0,0.6267760656393837 l -16,0 C484,255.56293776265753 278,110.89533720232141 278,110.89533720232141l-16,0 C262,110.89533720232141 56,117.46487892735645 56,117.46487892735645l-16,0 Z"/><path class="path" stroke-opacity="1" fill="#636efa" fill-opacity="0.6" stroke="lightgray" stroke-width="0.2" d="M 40,117.46487892735645l16,0 C56,117.46487892735645 262,132.3362017210326 262,132.3362017210326l16,0 C278,132.3362017210326 484,82.65999599759857 484,82.65999599759857l16,0 l0,1.8106864118471084 l -16,0 C484,84.47068240944569 278,134.14688813287972 278,134.14688813287972l-16,0 C262,134.14688813287972 56,119.27556533920357 56,119.27556533920357l-16,0 Z"/><path class="path" stroke-opacity="1" fill="#636efa" fill-opacity="0.6" stroke="lightgray" stroke-width="0.2" d="M 40,119.27556533920357l16,0 C56,119.27556533920357 262,134.14688813287972 262,134.14688813287972l16,0 C278,134.14688813287972 484,200.25295177106258 484,200.25295177106258l16,0 l0,0.9285571342805683 l -16,0 C484,201.18150890534315 278,135.0754452671603 278,135.0754452671603l-16,0 C262,135.0754452671603 56,120.20412247348413 56,120.20412247348413l-16,0 Z"/><path class="path" stroke-opacity="1" fill="#636efa" fill-opacity="0.6" stroke="lightgray" stroke-width="0.2" d="M 40,120.20412247348413l16,0 C56,120.20412247348413 262,135.0754452671603 262,135.0754452671603l16,0 C278,135.0754452671603 484,255.56293776265753 484,255.56293776265753l16,0 l0,0.5107064238543126 l -16,0 C484,256.07364418651184 278,135.5861516910146 278,135.5861516910146l-16,0 C262,135.5861516910146 56,120.71482889733845 56,120.71482889733845l-16,0 Z"/><path class="path" stroke-opacity="1" fill="#636efa" fill-opacity="0.6" stroke="lightgray" stroke-width="0.2" d="M 40,120.71482889733845l16,0 C56,120.71482889733845 262,157.00380228136882 262,157.00380228136882l16,0 C278,157.00380228136882 484,84.47068240944569 484,84.47068240944569l16,0 l0,2.228537122273364 l -16,0 C484,86.69921953171905 278,159.2323394036422 278,159.2323394036422l-16,0 C262,159.2323394036422 56,122.94336601961182 56,122.94336601961182l-16,0 Z"/><path class="path" stroke-opacity="1" fill="#636efa" fill-opacity="0.6" stroke="lightgray" stroke-width="0.2" d="M 40,122.94336601961182l16,0 C56,122.94336601961182 262,159.2323394036422 262,159.2323394036422l16,0 C278,159.2323394036422 484,201.18150890534315 484,201.18150890534315l16,0 l0,0.7428457074244547 l -16,0 C484,201.92435461276762 278,159.97518511106665 278,159.97518511106665l-16,0 C262,159.97518511106665 56,123.68621172703627 56,123.68621172703627l-16,0 Z"/><path class="path" stroke-opacity="1" fill="#636efa" fill-opacity="0.6" stroke="lightgray" stroke-width="0.2" d="M 40,123.68621172703627l16,0 C56,123.68621172703627 262,159.97518511106665 262,159.97518511106665l16,0 C278,159.97518511106665 484,256.07364418651184 484,256.07364418651184l16,0 l0,0.7196317790674405 l -16,0 C484,256.79327596557926 278,160.6948168901341 278,160.6948168901341l-16,0 C262,160.6948168901341 56,124.40584350610371 56,124.40584350610371l-16,0 Z"/><path class="path" stroke-opacity="1" fill="#636efa" fill-opacity="0.6" stroke="lightgray" stroke-width="0.2" d="M 40,124.40584350610371l16,0 C56,124.40584350610371 262,184.15529317590554 262,184.15529317590554l16,0 C278,184.15529317590554 484,86.69921953171905 484,86.69921953171905l16,0 l0,4.294576746047628 l -16,0 C484,90.99379627776668 278,188.44986992195317 278,188.44986992195317l-16,0 C262,188.44986992195317 56,128.70042025215133 56,128.70042025215133l-16,0 Z"/><path class="path" stroke-opacity="1" fill="#636efa" fill-opacity="0.6" stroke="lightgray" stroke-width="0.2" d="M 40,128.70042025215133l16,0 C56,128.70042025215133 262,188.44986992195317 262,188.44986992195317l16,0 C278,188.44986992195317 484,201.92435461276762 484,201.92435461276762l16,0 l0,1.3928357014208526 l -16,0 C484,203.31719031418848 278,189.84270562337403 278,189.84270562337403l-16,0 C262,189.84270562337403 56,130.0932559535722 56,130.0932559535722l-16,0 Z"/><path class="path" stroke-opacity="1" fill="#636efa" fill-opacity="0.6" stroke="lightgray" stroke-width="0.2" d="M 40,130.0932559535722l16,0 C56,130.0932559535722 262,189.84270562337403 262,189.84270562337403l16,0 C278,189.84270562337403 484,256.79327596557926 484,256.79327596557926l16,0 l0,1.114268561136682 l -16,0 C484,257.9075445267159 278,190.9569741845107 278,190.9569741845107l-16,0 C262,190.9569741845107 56,131.20752451470887 56,131.20752451470887l-16,0 Z"/><path class="path" stroke-opacity="1" fill="#636efa" fill-opacity="0.6" stroke="lightgray" stroke-width="0.2" d="M 40,131.20752451470887l16,0 C56,131.20752451470887 262,221.79947968781272 262,221.79947968781272l16,0 C278,221.79947968781272 484,90.99379627776668 484,90.99379627776668l16,0 l0,2.0660396237742646 l -16,0 C484,93.05983590154094 278,223.86551931158698 278,223.86551931158698l-16,0 C262,223.86551931158698 56,133.27356413848312 56,133.27356413848312l-16,0 Z"/><path class="path" stroke-opacity="1" fill="#636efa" fill-opacity="0.6" stroke="lightgray" stroke-width="0.2" d="M 40,133.27356413848312l16,0 C56,133.27356413848312 262,223.86551931158698 262,223.86551931158698l16,0 C278,223.86551931158698 484,203.31719031418848 484,203.31719031418848l16,0 l0,0.8357014208525115 l -16,0 C484,204.15289173504098 278,224.70122073243948 278,224.70122073243948l-16,0 C262,224.70122073243948 56,134.10926555933563 56,134.10926555933563l-16,0 Z"/><path class="path" stroke-opacity="1" fill="#636efa" fill-opacity="0.6" stroke="lightgray" stroke-width="0.2" d="M 40,134.10926555933563l16,0 C56,134.10926555933563 262,224.70122073243948 262,224.70122073243948l16,0 C278,224.70122073243948 484,257.9075445267159 484,257.9075445267159l16,0 l0,0.9517710626375826 l -16,0 C484,258.8593155893535 278,225.65299179507707 278,225.65299179507707l-16,0 C262,225.65299179507707 56,135.06103662197322 56,135.06103662197322l-16,0 Z"/><path class="path" stroke-opacity="1" fill="#636efa" fill-opacity="0.6" stroke="lightgray" stroke-width="0.2" d="M 40,143.0610366219732l16,0 C56,143.0610366219732 262,3.157094256553932 262,3.157094256553932l16,0 C278,3.157094256553932 484,93.05983590154094 484,93.05983590154094l16,0 l0,1.0446267760656394 l -16,0 C484,94.10446267760658 278,4.201721032619572 278,4.201721032619572l-16,0 C262,4.201721032619572 56,144.1056633980388 56,144.1056633980388l-16,0 Z"/><path class="path" stroke-opacity="1" fill="#636efa" fill-opacity="0.6" stroke="lightgray" stroke-width="0.2" d="M 40,144.1056633980388l16,0 C56,144.1056633980388 262,4.201721032619572 262,4.201721032619572l16,0 C278,4.201721032619572 484,204.15289173504098 484,204.15289173504098l16,0 l0,0.5107064238543126 l -16,0 C484,204.6635981588953 278,4.712427456473884 278,4.712427456473884l-16,0 C262,4.712427456473884 56,144.61636982189313 56,144.61636982189313l-16,0 Z"/><path class="path" stroke-opacity="1" fill="#636efa" fill-opacity="0.6" stroke="lightgray" stroke-width="0.2" d="M 40,144.61636982189313l16,0 C56,144.61636982189313 262,4.712427456473884 262,4.712427456473884l16,0 C278,4.712427456473884 484,258.8593155893535 484,258.8593155893535l16,0 l0,0.5107064238543126 l -16,0 C484,259.3700220132078 278,5.223133880328197 278,5.223133880328197l-16,0 C262,5.223133880328197 56,145.12707624574745 56,145.12707624574745l-16,0 Z"/><path class="path" stroke-opacity="1" fill="#636efa" fill-opacity="0.6" stroke="lightgray" stroke-width="0.2" d="M 40,145.12707624574745l16,0 C56,145.12707624574745 262,19.630178106864115 262,19.630178106864115l16,0 C278,19.630178106864115 484,94.10446267760658 484,94.10446267760658l16,0 l0,1.0910546327796677 l -16,0 C484,95.19551731038625 278,20.72123273964378 278,20.72123273964378l-16,0 C262,20.72123273964378 56,146.21813087852712 56,146.21813087852712l-16,0 Z"/><path class="path" stroke-opacity="1" fill="#636efa" fill-opacity="0.6" stroke="lightgray" stroke-width="0.2" d="M 40,146.21813087852712l16,0 C56,146.21813087852712 262,20.72123273964378 262,20.72123273964378l16,0 C278,20.72123273964378 484,204.6635981588953 484,204.6635981588953l16,0 l0,0.44106463878326996 l -16,0 C484,205.10466279767857 278,21.162297378427052 278,21.162297378427052l-16,0 C262,21.162297378427052 56,146.6591955173104 56,146.6591955173104l-16,0 Z"/><path class="path" stroke-opacity="1" fill="#636efa" fill-opacity="0.6" stroke="lightgray" stroke-width="0.2" d="M 40,146.6591955173104l16,0 C56,146.6591955173104 262,21.162297378427052 262,21.162297378427052l16,0 C278,21.162297378427052 484,259.3700220132078 484,259.3700220132078l16,0 l0,0.37142285371222733 l -16,0 C484,259.74144486692 278,21.53372023213928 278,21.53372023213928l-16,0 C262,21.53372023213928 56,147.03061837102263 56,147.03061837102263l-16,0 Z"/><path class="path" stroke-opacity="1" fill="#636efa" fill-opacity="0.6" stroke="lightgray" stroke-width="0.2" d="M 40,147.03061837102263l16,0 C56,147.03061837102263 262,259.9775865519312 262,259.9775865519312l16,0 C278,259.9775865519312 484,95.19551731038625 484,95.19551731038625l16,0 l0,5.060636381829097 l -16,0 C484,100.25615369221535 278,265.0382229337603 278,265.0382229337603l-16,0 C262,265.0382229337603 56,152.0912547528517 56,152.0912547528517l-16,0 Z"/><path class="path" stroke-opacity="1" fill="#636efa" fill-opacity="0.6" stroke="lightgray" stroke-width="0.2" d="M 40,152.0912547528517l16,0 C56,152.0912547528517 262,265.0382229337603 262,265.0382229337603l16,0 C278,265.0382229337603 484,205.10466279767857 484,205.10466279767857l16,0 l0,1.9267560536321793 l -16,0 C484,207.03141885131075 278,266.9649789873925 278,266.9649789873925l-16,0 C262,266.9649789873925 56,154.0180108064839 56,154.0180108064839l-16,0 Z"/><path class="path" stroke-opacity="1" fill="#636efa" fill-opacity="0.6" stroke="lightgray" stroke-width="0.2" d="M 40,154.0180108064839l16,0 C56,154.0180108064839 262,266.9649789873925 262,266.9649789873925l16,0 C278,266.9649789873925 484,259.74144486692 484,259.74144486692l16,0 l0,1.671402841705023 l -16,0 C484,261.412847708625 278,268.6363818290975 278,268.6363818290975l-16,0 C262,268.6363818290975 56,155.68941364818892 56,155.68941364818892l-16,0 Z"/><path class="path" stroke-opacity="1" fill="#636efa" fill-opacity="0.6" stroke="lightgray" stroke-width="0.2" d="M 40,155.68941364818892l16,0 C56,155.68941364818892 262,300.80208124874935 262,300.80208124874935l16,0 C278,300.80208124874935 484,100.25615369221535 484,100.25615369221535l16,0 l0,4.735641384830899 l -16,0 C484,104.99179507704625 278,305.53772263358024 278,305.53772263358024l-16,0 C262,305.53772263358024 56,160.42505503301982 56,160.42505503301982l-16,0 Z"/><path class="path" stroke-opacity="1" fill="#636efa" fill-opacity="0.6" stroke="lightgray" stroke-width="0.2" d="M 40,160.42505503301982l16,0 C56,160.42505503301982 262,305.53772263358024 262,305.53772263358024l16,0 C278,305.53772263358024 484,207.03141885131075 484,207.03141885131075l16,0 l0,1.9731839103462079 l -16,0 C484,209.00460276165694 278,307.51090654392647 278,307.51090654392647l-16,0 C262,307.51090654392647 56,162.39823894336604 56,162.39823894336604l-16,0 Z"/><path class="path" stroke-opacity="1" fill="#636efa" fill-opacity="0.6" stroke="lightgray" stroke-width="0.2" d="M 40,162.39823894336604l16,0 C56,162.39823894336604 262,307.51090654392647 262,307.51090654392647l16,0 C278,307.51090654392647 484,261.412847708625 484,261.412847708625l16,0 l0,1.4160496297778666 l -16,0 C484,262.8288973384029 278,308.92695617370435 278,308.92695617370435l-16,0 C262,308.92695617370435 56,163.8142885731439 56,163.8142885731439l-16,0 Z"/><path class="path" stroke-opacity="1" fill="#636efa" fill-opacity="0.6" stroke="lightgray" stroke-width="0.2" d="M 40,163.8142885731439l16,0 C56,163.8142885731439 262,38.74964978987393 262,38.74964978987393l16,0 C278,38.74964978987393 484,104.99179507704625 484,104.99179507704625l16,0 l0,1.996397838703222 l -16,0 C484,106.98819291574947 278,40.74604762857715 278,40.74604762857715l-16,0 C262,40.74604762857715 56,165.81068641184712 56,165.81068641184712l-16,0 Z"/><path class="path" stroke-opacity="1" fill="#636efa" fill-opacity="0.6" stroke="lightgray" stroke-width="0.2" d="M 40,165.81068641184712l16,0 C56,165.81068641184712 262,40.74604762857715 262,40.74604762857715l16,0 C278,40.74604762857715 484,209.00460276165694 484,209.00460276165694l16,0 l0,0.9285571342805683 l -16,0 C484,209.9331598959375 278,41.67460476285772 278,41.67460476285772l-16,0 C262,41.67460476285772 56,166.73924354612768 56,166.73924354612768l-16,0 Z"/><path class="path" stroke-opacity="1" fill="#636efa" fill-opacity="0.6" stroke="lightgray" stroke-width="0.2" d="M 40,166.73924354612768l16,0 C56,166.73924354612768 262,41.67460476285772 262,41.67460476285772l16,0 C278,41.67460476285772 484,262.8288973384029 484,262.8288973384029l16,0 l0,0.8124874924954973 l -16,0 C484,263.6413848308984 278,42.48709225535322 278,42.48709225535322l-16,0 C262,42.48709225535322 56,167.5517310386232 56,167.5517310386232l-16,0 Z"/><path class="path" stroke-opacity="1" fill="#636efa" fill-opacity="0.6" stroke="lightgray" stroke-width="0.2" d="M 40,167.5517310386232l16,0 C56,167.5517310386232 262,62.604762857714626 262,62.604762857714626l16,0 C278,62.604762857714626 484,106.98819291574947 484,106.98819291574947l16,0 l0,2.599959975985591 l -16,0 C484,109.58815289173506 278,65.20472283370022 278,65.20472283370022l-16,0 C262,65.20472283370022 56,170.1516910146088 56,170.1516910146088l-16,0 Z"/><path class="path" stroke-opacity="1" fill="#636efa" fill-opacity="0.6" stroke="lightgray" stroke-width="0.2" d="M 40,170.1516910146088l16,0 C56,170.1516910146088 262,65.20472283370022 262,65.20472283370022l16,0 C278,65.20472283370022 484,209.9331598959375 484,209.9331598959375l16,0 l0,0.789273564138483 l -16,0 C484,210.722433460076 278,65.9939963978387 278,65.9939963978387l-16,0 C262,65.9939963978387 56,170.94096457874727 56,170.94096457874727l-16,0 Z"/><path class="path" stroke-opacity="1" fill="#636efa" fill-opacity="0.6" stroke="lightgray" stroke-width="0.2" d="M 40,170.94096457874727l16,0 C56,170.94096457874727 262,65.9939963978387 262,65.9939963978387l16,0 C278,65.9939963978387 484,263.6413848308984 484,263.6413848308984l16,0 l0,0.557134280568341 l -16,0 C484,264.19851911146674 278,66.55113067840703 278,66.55113067840703l-16,0 C262,66.55113067840703 56,171.4980988593156 56,171.4980988593156l-16,0 Z"/><path class="path" stroke-opacity="1" fill="#636efa" fill-opacity="0.6" stroke="lightgray" stroke-width="0.2" d="M 40,171.4980988593156l16,0 C56,171.4980988593156 262,85.36882129277568 262,85.36882129277568l16,0 C278,85.36882129277568 484,109.58815289173506 484,109.58815289173506l16,0 l0,3.2035221132679608 l -16,0 C484,112.79167500500303 278,88.57234340604364 278,88.57234340604364l-16,0 C262,88.57234340604364 56,174.70162097258356 56,174.70162097258356l-16,0 Z"/><path class="path" stroke-opacity="1" fill="#636efa" fill-opacity="0.6" stroke="lightgray" stroke-width="0.2" d="M 40,174.70162097258356l16,0 C56,174.70162097258356 262,88.57234340604364 262,88.57234340604364l16,0 C278,88.57234340604364 484,210.722433460076 484,210.722433460076l16,0 l0,0.998198919351611 l -16,0 C484,211.7206323794276 278,89.57054232539525 278,89.57054232539525l-16,0 C262,89.57054232539525 56,175.69981989193516 56,175.69981989193516l-16,0 Z"/><path class="path" stroke-opacity="1" fill="#636efa" fill-opacity="0.6" stroke="lightgray" stroke-width="0.2" d="M 40,175.69981989193516l16,0 C56,175.69981989193516 262,89.57054232539525 262,89.57054232539525l16,0 C278,89.57054232539525 484,264.19851911146674 484,264.19851911146674l16,0 l0,0.9517710626375826 l -16,0 C484,265.1502901741043 278,90.52231338803283 278,90.52231338803283l-16,0 C262,90.52231338803283 56,176.65159095457275 56,176.65159095457275l-16,0 Z"/><path class="path" stroke-opacity="1" fill="#636efa" fill-opacity="0.6" stroke="lightgray" stroke-width="0.2" d="M 40,176.65159095457275l16,0 C56,176.65159095457275 262,110.89533720232141 262,110.89533720232141l16,0 C278,110.89533720232141 484,112.79167500500303 484,112.79167500500303l16,0 l0,2.948168901340804 l -16,0 C484,115.73984390634384 278,113.84350610366222 278,113.84350610366222l-16,0 C262,113.84350610366222 56,179.59975985591356 56,179.59975985591356l-16,0 Z"/><path class="path" stroke-opacity="1" fill="#636efa" fill-opacity="0.6" stroke="lightgray" stroke-width="0.2" d="M 40,179.59975985591356l16,0 C56,179.59975985591356 262,113.84350610366222 262,113.84350610366222l16,0 C278,113.84350610366222 484,211.7206323794276 484,211.7206323794276l16,0 l0,0.9053432059235542 l -16,0 C484,212.62597558535114 278,114.74884930958578 278,114.74884930958578l-16,0 C262,114.74884930958578 56,180.5051030618371 56,180.5051030618371l-16,0 Z"/><path class="path" stroke-opacity="1" fill="#636efa" fill-opacity="0.6" stroke="lightgray" stroke-width="0.2" d="M 40,180.5051030618371l16,0 C56,180.5051030618371 262,114.74884930958578 262,114.74884930958578l16,0 C278,114.74884930958578 484,265.1502901741043 484,265.1502901741043l16,0 l0,0.8357014208525115 l -16,0 C484,265.98599159495683 278,115.5845507304383 278,115.5845507304383l-16,0 C262,115.5845507304383 56,181.3408044826896 56,181.3408044826896l-16,0 Z"/><path class="path" stroke-opacity="1" fill="#636efa" fill-opacity="0.6" stroke="lightgray" stroke-width="0.2" d="M 40,181.3408044826896l16,0 C56,181.3408044826896 262,135.5861516910146 262,135.5861516910146l16,0 C278,135.5861516910146 484,115.73984390634384 484,115.73984390634384l16,0 l0,2.9713828296978186 l -16,0 C484,118.71122673604165 278,138.55753452071244 278,138.55753452071244l-16,0 C262,138.55753452071244 56,184.31218731238744 56,184.31218731238744l-16,0 Z"/><path class="path" stroke-opacity="1" fill="#636efa" fill-opacity="0.6" stroke="lightgray" stroke-width="0.2" d="M 40,184.31218731238744l16,0 C56,184.31218731238744 262,138.55753452071244 262,138.55753452071244l16,0 C278,138.55753452071244 484,212.62597558535114 484,212.62597558535114l16,0 l0,0.8821292775665399 l -16,0 C484,213.5081048629177 278,139.43966379827899 278,139.43966379827899l-16,0 C262,139.43966379827899 56,185.19431658995398 56,185.19431658995398l-16,0 Z"/><path class="path" stroke-opacity="1" fill="#636efa" fill-opacity="0.6" stroke="lightgray" stroke-width="0.2" d="M 40,185.19431658995398l16,0 C56,185.19431658995398 262,139.43966379827899 262,139.43966379827899l16,0 C278,139.43966379827899 484,265.98599159495683 484,265.98599159495683l16,0 l0,0.7660596357814689 l -16,0 C484,266.7520512307383 278,140.20572343406045 278,140.20572343406045l-16,0 C262,140.20572343406045 56,185.96037622573544 56,185.96037622573544l-16,0 Z"/><path class="path" stroke-opacity="1" fill="#636efa" fill-opacity="0.6" stroke="lightgray" stroke-width="0.2" d="M 40,185.96037622573544l16,0 C56,185.96037622573544 262,160.6948168901341 262,160.6948168901341l16,0 C278,160.6948168901341 484,118.71122673604165 484,118.71122673604165l16,0 l0,2.553532119271563 l -16,0 C484,121.26475885531322 278,163.24834900940564 278,163.24834900940564l-16,0 C262,163.24834900940564 56,188.513908345007 56,188.513908345007l-16,0 Z"/><path class="path" stroke-opacity="1" fill="#636efa" fill-opacity="0.6" stroke="lightgray" stroke-width="0.2" d="M 40,188.513908345007l16,0 C56,188.513908345007 262,163.24834900940564 262,163.24834900940564l16,0 C278,163.24834900940564 484,213.5081048629177 484,213.5081048629177l16,0 l0,0.7196317790674405 l -16,0 C484,214.22773664198513 278,163.96798078847308 278,163.96798078847308l-16,0 C262,163.96798078847308 56,189.23354012407444 56,189.23354012407444l-16,0 Z"/><path class="path" stroke-opacity="1" fill="#636efa" fill-opacity="0.6" stroke="lightgray" stroke-width="0.2" d="M 40,189.23354012407444l16,0 C56,189.23354012407444 262,163.96798078847308 262,163.96798078847308l16,0 C278,163.96798078847308 484,266.7520512307383 484,266.7520512307383l16,0 l0,0.9053432059235542 l -16,0 C484,267.65739443666183 278,164.87332399439663 278,164.87332399439663l-16,0 C262,164.87332399439663 56,190.13888332999798 56,190.13888332999798l-16,0 Z"/><path class="path" stroke-opacity="1" fill="#636efa" fill-opacity="0.6" stroke="lightgray" stroke-width="0.2" d="M 40,190.13888332999798l16,0 C56,190.13888332999798 262,190.9569741845107 262,190.9569741845107l16,0 C278,190.9569741845107 484,121.26475885531322 484,121.26475885531322l16,0 l0,5.339203522113268 l -16,0 C484,126.60396237742648 278,196.29617770662398 278,196.29617770662398l-16,0 C262,196.29617770662398 56,195.47808685211126 56,195.47808685211126l-16,0 Z"/><path class="path" stroke-opacity="1" fill="#636efa" fill-opacity="0.6" stroke="lightgray" stroke-width="0.2" d="M 40,195.47808685211126l16,0 C56,195.47808685211126 262,196.29617770662398 262,196.29617770662398l16,0 C278,196.29617770662398 484,214.22773664198513 484,214.22773664198513l16,0 l0,1.9035421252751652 l -16,0 C484,216.13127876726028 278,198.19971983189913 278,198.19971983189913l-16,0 C262,198.19971983189913 56,197.3816289773864 56,197.3816289773864l-16,0 Z"/><path class="path" stroke-opacity="1" fill="#636efa" fill-opacity="0.6" stroke="lightgray" stroke-width="0.2" d="M 40,197.3816289773864l16,0 C56,197.3816289773864 262,198.19971983189913 262,198.19971983189913l16,0 C278,198.19971983189913 484,267.65739443666183 484,267.65739443666183l16,0 l0,1.1606964178507104 l -16,0 C484,268.81809085451255 278,199.36041624974985 278,199.36041624974985l-16,0 C262,199.36041624974985 56,198.54232539523713 56,198.54232539523713l-16,0 Z"/><path class="path" stroke-opacity="1" fill="#636efa" fill-opacity="0.6" stroke="lightgray" stroke-width="0.2" d="M 40,198.54232539523713l16,0 C56,198.54232539523713 262,225.65299179507707 262,225.65299179507707l16,0 C278,225.65299179507707 484,126.60396237742648 484,126.60396237742648l16,0 l0,2.669601761056634 l -16,0 C484,129.27356413848312 278,228.3225935561337 278,228.3225935561337l-16,0 C262,228.3225935561337 56,201.21192715629377 56,201.21192715629377l-16,0 Z"/><path class="path" stroke-opacity="1" fill="#636efa" fill-opacity="0.6" stroke="lightgray" stroke-width="0.2" d="M 40,201.21192715629377l16,0 C56,201.21192715629377 262,228.3225935561337 262,228.3225935561337l16,0 C278,228.3225935561337 484,216.13127876726028 484,216.13127876726028l16,0 l0,1.0678407044226537 l -16,0 C484,217.19911947168293 278,229.39043426055636 278,229.39043426055636l-16,0 C262,229.39043426055636 56,202.27976786071642 56,202.27976786071642l-16,0 Z"/><path class="path" stroke-opacity="1" fill="#636efa" fill-opacity="0.6" stroke="lightgray" stroke-width="0.2" d="M 40,202.27976786071642l16,0 C56,202.27976786071642 262,229.39043426055636 262,229.39043426055636l16,0 C278,229.39043426055636 484,268.81809085451255 484,268.81809085451255l16,0 l0,0.6732039223534121 l -16,0 C484,269.49129477686597 278,230.06363818290978 278,230.06363818290978l-16,0 C262,230.06363818290978 56,202.95297178306984 56,202.95297178306984l-16,0 Z"/><path class="path" stroke-opacity="1" fill="#636efa" fill-opacity="0.6" stroke="lightgray" stroke-width="0.2" d="M 40,210.95297178306984l16,0 C56,210.95297178306984 262,5.223133880328197 262,5.223133880328197l16,0 C278,5.223133880328197 484,129.27356413848312 484,129.27356413848312l16,0 l0,2.4606764058435058 l -16,0 C484,131.73424054432664 278,7.683810286171703 278,7.683810286171703l-16,0 C262,7.683810286171703 56,213.41364818891336 56,213.41364818891336l-16,0 Z"/><path class="path" stroke-opacity="1" fill="#636efa" fill-opacity="0.6" stroke="lightgray" stroke-width="0.2" d="M 40,213.41364818891336l16,0 C56,213.41364818891336 262,7.683810286171703 262,7.683810286171703l16,0 C278,7.683810286171703 484,217.19911947168293 484,217.19911947168293l16,0 l0,0.557134280568341 l -16,0 C484,217.75625375225127 278,8.240944566740044 278,8.240944566740044l-16,0 C262,8.240944566740044 56,213.9707824694817 56,213.9707824694817l-16,0 Z"/><path class="path" stroke-opacity="1" fill="#636efa" fill-opacity="0.6" stroke="lightgray" stroke-width="0.2" d="M 40,213.9707824694817l16,0 C56,213.9707824694817 262,8.240944566740044 262,8.240944566740044l16,0 C278,8.240944566740044 484,269.49129477686597 484,269.49129477686597l16,0 l0,0.7428457074244547 l -16,0 C484,270.23414048429044 278,8.983790274164498 278,8.983790274164498l-16,0 C262,8.983790274164498 56,214.71362817690616 56,214.71362817690616l-16,0 Z"/><path class="path" stroke-opacity="1" fill="#636efa" fill-opacity="0.6" stroke="lightgray" stroke-width="0.2" d="M 40,214.71362817690616l16,0 C56,214.71362817690616 262,21.53372023213928 262,21.53372023213928l16,0 C278,21.53372023213928 484,131.73424054432664 484,131.73424054432664l16,0 l0,1.3231939163498099 l -16,0 C484,133.05743446067646 278,22.85691414848909 278,22.85691414848909l-16,0 C262,22.85691414848909 56,216.03682209325598 56,216.03682209325598l-16,0 Z"/><path class="path" stroke-opacity="1" fill="#636efa" fill-opacity="0.6" stroke="lightgray" stroke-width="0.2" d="M 40,216.03682209325598l16,0 C56,216.03682209325598 262,22.85691414848909 262,22.85691414848909l16,0 C278,22.85691414848909 484,217.75625375225127 484,217.75625375225127l16,0 l0,0.6035621372823694 l -16,0 C484,218.35981588953365 278,23.46047628577146 278,23.46047628577146l-16,0 C262,23.46047628577146 56,216.64038423053836 56,216.64038423053836l-16,0 Z"/><path class="path" stroke-opacity="1" fill="#636efa" fill-opacity="0.6" stroke="lightgray" stroke-width="0.2" d="M 40,216.64038423053836l16,0 C56,216.64038423053836 262,23.46047628577146 262,23.46047628577146l16,0 C278,23.46047628577146 484,270.23414048429044 484,270.23414048429044l16,0 l0,0.5107064238543126 l -16,0 C484,270.7448469081447 278,23.971182709625772 278,23.971182709625772l-16,0 C262,23.971182709625772 56,217.15109065439268 56,217.15109065439268l-16,0 Z"/><path class="path" stroke-opacity="1" fill="#636efa" fill-opacity="0.6" stroke="lightgray" stroke-width="0.2" d="M 40,217.15109065439268l16,0 C56,217.15109065439268 262,268.6363818290975 262,268.6363818290975l16,0 C278,268.6363818290975 484,133.05743446067646 484,133.05743446067646l16,0 l0,6.082049229537723 l -16,0 C484,139.13948369021418 278,274.71843105863525 278,274.71843105863525l-16,0 C262,274.71843105863525 56,223.2331398839304 56,223.2331398839304l-16,0 Z"/><path class="path" stroke-opacity="1" fill="#636efa" fill-opacity="0.6" stroke="lightgray" stroke-width="0.2" d="M 40,223.2331398839304l16,0 C56,223.2331398839304 262,274.71843105863525 262,274.71843105863525l16,0 C278,274.71843105863525 484,218.35981588953365 484,218.35981588953365l16,0 l0,2.2053231939163496 l -16,0 C484,220.56513908345 278,276.9237542525516 278,276.9237542525516l-16,0 C262,276.9237542525516 56,225.43846307784673 56,225.43846307784673l-16,0 Z"/><path class="path" stroke-opacity="1" fill="#636efa" fill-opacity="0.6" stroke="lightgray" stroke-width="0.2" d="M 40,225.43846307784673l16,0 C56,225.43846307784673 262,276.9237542525516 262,276.9237542525516l16,0 C278,276.9237542525516 484,270.7448469081447 484,270.7448469081447l16,0 l0,2.0892535521312787 l -16,0 C484,272.834100460276 278,279.01300780468284 278,279.01300780468284l-16,0 C262,279.01300780468284 56,227.52771662997802 56,227.52771662997802l-16,0 Z"/><path class="path" stroke-opacity="1" fill="#636efa" fill-opacity="0.6" stroke="lightgray" stroke-width="0.2" d="M 40,227.52771662997802l16,0 C56,227.52771662997802 262,308.92695617370435 262,308.92695617370435l16,0 C278,308.92695617370435 484,139.13948369021418 484,139.13948369021418l16,0 l0,6.685611366820092 l -16,0 C484,145.82509505703428 278,315.6125675405244 278,315.6125675405244l-16,0 C262,315.6125675405244 56,234.2133279967981 56,234.2133279967981l-16,0 Z"/><path class="path" stroke-opacity="1" fill="#636efa" fill-opacity="0.6" stroke="lightgray" stroke-width="0.2" d="M 40,234.2133279967981l16,0 C56,234.2133279967981 262,315.6125675405244 262,315.6125675405244l16,0 C278,315.6125675405244 484,220.56513908345 484,220.56513908345l16,0 l0,2.553532119271563 l -16,0 C484,223.11867120272154 278,318.166099659796 278,318.166099659796l-16,0 C262,318.166099659796 56,236.76686011606967 56,236.76686011606967l-16,0 Z"/><path class="path" stroke-opacity="1" fill="#636efa" fill-opacity="0.6" stroke="lightgray" stroke-width="0.2" d="M 40,236.76686011606967l16,0 C56,236.76686011606967 262,318.166099659796 262,318.166099659796l16,0 C278,318.166099659796 484,272.834100460276 484,272.834100460276l16,0 l0,1.8339003402041227 l -16,0 C484,274.6680008004801 278,320.0000000000001 278,320.0000000000001l-16,0 C262,320.0000000000001 56,238.60076045627378 56,238.60076045627378l-16,0 Z"/><path class="path" stroke-opacity="1" fill="#636efa" fill-opacity="0.6" stroke="lightgray" stroke-width="0.2" d="M 40,238.60076045627378l16,0 C56,238.60076045627378 262,42.48709225535322 262,42.48709225535322l16,0 C278,42.48709225535322 484,145.82509505703428 484,145.82509505703428l16,0 l0,3.2731638983390035 l -16,0 C484,149.09825895537327 278,45.760256153692225 278,45.760256153692225l-16,0 C262,45.760256153692225 56,241.87392435461277 56,241.87392435461277l-16,0 Z"/><path class="path" stroke-opacity="1" fill="#636efa" fill-opacity="0.6" stroke="lightgray" stroke-width="0.2" d="M 40,241.87392435461277l16,0 C56,241.87392435461277 262,45.760256153692225 262,45.760256153692225l16,0 C278,45.760256153692225 484,223.11867120272154 484,223.11867120272154l16,0 l0,0.8124874924954973 l -16,0 C484,223.93115869521705 278,46.572743646187725 278,46.572743646187725l-16,0 C262,46.572743646187725 56,242.68641184710827 56,242.68641184710827l-16,0 Z"/><path class="path" stroke-opacity="1" fill="#636efa" fill-opacity="0.6" stroke="lightgray" stroke-width="0.2" d="M 40,242.68641184710827l16,0 C56,242.68641184710827 262,46.572743646187725 262,46.572743646187725l16,0 C278,46.572743646187725 484,274.6680008004801 484,274.6680008004801l16,0 l0,1.1839103462077247 l -16,0 C484,275.8519111466878 278,47.75665399239545 278,47.75665399239545l-16,0 C262,47.75665399239545 56,243.87032219331599 56,243.87032219331599l-16,0 Z"/><path class="path" stroke-opacity="1" fill="#636efa" fill-opacity="0.6" stroke="lightgray" stroke-width="0.2" d="M 40,243.87032219331599l16,0 C56,243.87032219331599 262,66.55113067840703 262,66.55113067840703l16,0 C278,66.55113067840703 484,149.09825895537327 484,149.09825895537327l16,0 l0,2.9249549729837905 l -16,0 C484,152.02321392835705 278,69.47608565139082 278,69.47608565139082l-16,0 C262,69.47608565139082 56,246.79527716629977 56,246.79527716629977l-16,0 Z"/><path class="path" stroke-opacity="1" fill="#636efa" fill-opacity="0.6" stroke="lightgray" stroke-width="0.2" d="M 40,246.79527716629977l16,0 C56,246.79527716629977 262,69.47608565139082 262,69.47608565139082l16,0 C278,69.47608565139082 484,223.93115869521705 484,223.93115869521705l16,0 l0,1.0214128477086253 l -16,0 C484,224.95257154292568 278,70.49749849909945 278,70.49749849909945l-16,0 C262,70.49749849909945 56,247.8166900140084 56,247.8166900140084l-16,0 Z"/><path class="path" stroke-opacity="1" fill="#636efa" fill-opacity="0.6" stroke="lightgray" stroke-width="0.2" d="M 40,247.8166900140084l16,0 C56,247.8166900140084 262,70.49749849909945 262,70.49749849909945l16,0 C278,70.49749849909945 484,275.8519111466878 484,275.8519111466878l16,0 l0,0.6499899939963978 l -16,0 C484,276.5019011406842 278,71.14748849309585 278,71.14748849309585l-16,0 C262,71.14748849309585 56,248.4666800080048 56,248.4666800080048l-16,0 Z"/><path class="path" stroke-opacity="1" fill="#636efa" fill-opacity="0.6" stroke="lightgray" stroke-width="0.2" d="M 40,248.4666800080048l16,0 C56,248.4666800080048 262,90.52231338803283 262,90.52231338803283l16,0 C278,90.52231338803283 484,152.02321392835705 484,152.02321392835705l16,0 l0,3.691014608765259 l -16,0 C484,155.71422853712232 278,94.21332799679809 278,94.21332799679809l-16,0 C262,94.21332799679809 56,252.15769461677007 56,252.15769461677007l-16,0 Z"/><path class="path" stroke-opacity="1" fill="#636efa" fill-opacity="0.6" stroke="lightgray" stroke-width="0.2" d="M 40,252.15769461677007l16,0 C56,252.15769461677007 262,94.21332799679809 262,94.21332799679809l16,0 C278,94.21332799679809 484,224.95257154292568 484,224.95257154292568l16,0 l0,1.2999799879927956 l -16,0 C484,226.25255153091848 278,95.51330798479088 278,95.51330798479088l-16,0 C262,95.51330798479088 56,253.45767460476287 56,253.45767460476287l-16,0 Z"/><path class="path" stroke-opacity="1" fill="#636efa" fill-opacity="0.6" stroke="lightgray" stroke-width="0.2" d="M 40,253.45767460476287l16,0 C56,253.45767460476287 262,95.51330798479088 262,95.51330798479088l16,0 C278,95.51330798479088 484,276.5019011406842 484,276.5019011406842l16,0 l0,1.0446267760656394 l -16,0 C484,277.5465279167498 278,96.55793476085653 278,96.55793476085653l-16,0 C262,96.55793476085653 56,254.5023013808285 56,254.5023013808285l-16,0 Z"/><path class="path" stroke-opacity="1" fill="#636efa" fill-opacity="0.6" stroke="lightgray" stroke-width="0.2" d="M 40,254.5023013808285l16,0 C56,254.5023013808285 262,115.5845507304383 262,115.5845507304383l16,0 C278,115.5845507304383 484,155.71422853712232 484,155.71422853712232l16,0 l0,3.36601961176706 l -16,0 C484,159.08024814888938 278,118.95057034220535 278,118.95057034220535l-16,0 C262,118.95057034220535 56,257.86832099259556 56,257.86832099259556l-16,0 Z"/><path class="path" stroke-opacity="1" fill="#636efa" fill-opacity="0.6" stroke="lightgray" stroke-width="0.2" d="M 40,257.86832099259556l16,0 C56,257.86832099259556 262,118.95057034220535 262,118.95057034220535l16,0 C278,118.95057034220535 484,226.25255153091848 484,226.25255153091848l16,0 l0,1.0446267760656394 l -16,0 C484,227.2971783069841 278,119.995197118271 278,119.995197118271l-16,0 C262,119.995197118271 56,258.9129477686612 56,258.9129477686612l-16,0 Z"/><path class="path" stroke-opacity="1" fill="#636efa" fill-opacity="0.6" stroke="lightgray" stroke-width="0.2" d="M 40,258.9129477686612l16,0 C56,258.9129477686612 262,119.995197118271 262,119.995197118271l16,0 C278,119.995197118271 484,277.5465279167498 484,277.5465279167498l16,0 l0,1.0214128477086253 l -16,0 C484,278.56794076445846 278,121.01660996597963 278,121.01660996597963l-16,0 C262,121.01660996597963 56,259.9343606163698 56,259.9343606163698l-16,0 Z"/><path class="path" stroke-opacity="1" fill="#636efa" fill-opacity="0.6" stroke="lightgray" stroke-width="0.2" d="M 40,259.9343606163698l16,0 C56,259.9343606163698 262,140.20572343406045 262,140.20572343406045l16,0 C278,140.20572343406045 484,159.08024814888938 484,159.08024814888938l16,0 l0,2.8320992595557333 l -16,0 C484,161.91234740844513 278,143.0378226936162 278,143.0378226936162l-16,0 C262,143.0378226936162 56,262.76645987592553 56,262.76645987592553l-16,0 Z"/><path class="path" stroke-opacity="1" fill="#636efa" fill-opacity="0.6" stroke="lightgray" stroke-width="0.2" d="M 40,262.76645987592553l16,0 C56,262.76645987592553 262,143.0378226936162 262,143.0378226936162l16,0 C278,143.0378226936162 484,227.2971783069841 484,227.2971783069841l16,0 l0,1.3231939163498099 l -16,0 C484,228.62037222333393 278,144.36101660996601 278,144.36101660996601l-16,0 C262,144.36101660996601 56,264.0896537922753 56,264.0896537922753l-16,0 Z"/><path class="path" stroke-opacity="1" fill="#636efa" fill-opacity="0.6" stroke="lightgray" stroke-width="0.2" d="M 40,264.0896537922753l16,0 C56,264.0896537922753 262,144.36101660996601 262,144.36101660996601l16,0 C278,144.36101660996601 484,278.56794076445846 484,278.56794076445846l16,0 l0,1.0910546327796677 l -16,0 C484,279.65899539723813 278,145.4520712427457 278,145.4520712427457l-16,0 C262,145.4520712427457 56,265.180708425055 56,265.180708425055l-16,0 Z"/><path class="path" stroke-opacity="1" fill="#636efa" fill-opacity="0.6" stroke="lightgray" stroke-width="0.2" d="M 40,265.180708425055l16,0 C56,265.180708425055 262,164.87332399439663 262,164.87332399439663l16,0 C278,164.87332399439663 484,161.91234740844513 484,161.91234740844513l16,0 l0,3.2963778266960175 l -16,0 C484,165.20872523514115 278,168.16970182109264 278,168.16970182109264l-16,0 C262,168.16970182109264 56,268.477086251751 56,268.477086251751l-16,0 Z"/><path class="path" stroke-opacity="1" fill="#636efa" fill-opacity="0.6" stroke="lightgray" stroke-width="0.2" d="M 40,268.477086251751l16,0 C56,268.477086251751 262,168.16970182109264 262,168.16970182109264l16,0 C278,168.16970182109264 484,228.62037222333393 484,228.62037222333393l16,0 l0,0.9053432059235542 l -16,0 C484,229.52571542925747 278,169.0750450270162 278,169.0750450270162l-16,0 C262,169.0750450270162 56,269.38242945767456 56,269.38242945767456l-16,0 Z"/><path class="path" stroke-opacity="1" fill="#636efa" fill-opacity="0.6" stroke="lightgray" stroke-width="0.2" d="M 40,269.38242945767456l16,0 C56,269.38242945767456 262,169.0750450270162 262,169.0750450270162l16,0 C278,169.0750450270162 484,279.65899539723813 484,279.65899539723813l16,0 l0,0.8589153492095257 l -16,0 C484,280.5179107464477 278,169.9339603762257 278,169.9339603762257l-16,0 C262,169.9339603762257 56,270.2413448068841 56,270.2413448068841l-16,0 Z"/><path class="path" stroke-opacity="1" fill="#636efa" fill-opacity="0.6" stroke="lightgray" stroke-width="0.2" d="M 40,270.2413448068841l16,0 C56,270.2413448068841 262,199.36041624974985 262,199.36041624974985l16,0 C278,199.36041624974985 484,165.20872523514115 484,165.20872523514115l16,0 l0,6.639183510106063 l -16,0 C484,171.8479087452472 278,205.9995997598559 278,205.9995997598559l-16,0 C262,205.9995997598559 56,276.8805283169902 56,276.8805283169902l-16,0 Z"/><path class="path" stroke-opacity="1" fill="#636efa" fill-opacity="0.6" stroke="lightgray" stroke-width="0.2" d="M 40,276.8805283169902l16,0 C56,276.8805283169902 262,205.9995997598559 262,205.9995997598559l16,0 C278,205.9995997598559 484,229.52571542925747 484,229.52571542925747l16,0 l0,1.9499699819891936 l -16,0 C484,231.47568541124667 278,207.9495697418451 278,207.9495697418451l-16,0 C262,207.9495697418451 56,278.83049829897936 56,278.83049829897936l-16,0 Z"/><path class="path" stroke-opacity="1" fill="#636efa" fill-opacity="0.6" stroke="lightgray" stroke-width="0.2" d="M 40,278.83049829897936l16,0 C56,278.83049829897936 262,207.9495697418451 262,207.9495697418451l16,0 C278,207.9495697418451 484,280.5179107464477 484,280.5179107464477l16,0 l0,2.1588953372023214 l -16,0 C484,282.67680608365 278,210.10846507904742 278,210.10846507904742l-16,0 C262,210.10846507904742 56,280.98939363618166 56,280.98939363618166l-16,0 Z"/><path class="path" stroke-opacity="1" fill="#636efa" fill-opacity="0.6" stroke="lightgray" stroke-width="0.2" d="M 40,280.98939363618166l16,0 C56,280.98939363618166 262,230.06363818290978 262,230.06363818290978l16,0 C278,230.06363818290978 484,171.8479087452472 484,171.8479087452472l16,0 l0,4.039223534120472 l -16,0 C484,175.88713227936768 278,234.10286171703027 278,234.10286171703027l-16,0 C262,234.10286171703027 56,285.02861717030214 56,285.02861717030214l-16,0 Z"/><path class="path" stroke-opacity="1" fill="#636efa" fill-opacity="0.6" stroke="lightgray" stroke-width="0.2" d="M 40,285.02861717030214l16,0 C56,285.02861717030214 262,234.10286171703027 262,234.10286171703027l16,0 C278,234.10286171703027 484,231.47568541124667 484,231.47568541124667l16,0 l0,1.6481889133480088 l -16,0 C484,233.12387432459468 278,235.75105063037827 278,235.75105063037827l-16,0 C262,235.75105063037827 56,286.67680608365015 56,286.67680608365015l-16,0 Z"/><path class="path" stroke-opacity="1" fill="#636efa" fill-opacity="0.6" stroke="lightgray" stroke-width="0.2" d="M 40,286.67680608365015l16,0 C56,286.67680608365015 262,235.75105063037827 262,235.75105063037827l16,0 C278,235.75105063037827 484,282.67680608365 484,282.67680608365l16,0 l0,1.3231939163498099 l -16,0 C484,283.9999999999998 278,237.0742445467281 278,237.0742445467281l-16,0 C262,237.0742445467281 56,287.99999999999994 56,287.99999999999994l-16,0 Z"/></g><g class="dimensions"><g class="dimension" transform="translate(40,0)"><g class="category" transform="translate(0,32)"><rect class="catrect" pointer-events="none" fill="none" width="16" height="46.26535921552932" stroke="black" stroke-width="1" stroke-opacity="1"/><rect class="bandrect" stroke-opacity="1" fill="#636efa" fill-opacity="1" width="16" height="46.265359215529315" y="0" cursor="ns-resize" stroke="black" stroke-width="0.2"/><text class="catlabel" pointer-events="none" text-anchor="end" alignment-baseline="middle" x="-5" y="23.13267960776466" style="fill: rgb(42, 63, 95); font-family: 'Open Sans', verdana, arial, sans-serif; font-size: 10px; fill-opacity: 1; text-shadow: rgb(255, 255, 255) 1px 1px 1px, rgb(255, 255, 255) -1px -1px 1px, rgb(255, 255, 255) 1px -1px 1px, rgb(255, 255, 255) -1px 1px 1px; white-space: pre;">2011</text><text class="dimlabel" text-anchor="middle" alignment-baseline="baseline" cursor="ew-resize" x="8" y="-5" style="font-family: 'Open Sans', verdana, arial, sans-serif; font-size: 12px; fill: rgb(42, 63, 95); fill-opacity: 1;">Year</text></g><g class="category" transform="translate(0,86.26535921552932)"><rect class="catrect" pointer-events="none" fill="none" width="16" height="48.79567740644387" stroke="black" stroke-width="1" stroke-opacity="1"/><rect class="bandrect" stroke-opacity="1" fill="#636efa" fill-opacity="1" width="16" height="48.79567740644388" y="0" cursor="ns-resize" stroke="black" stroke-width="0.2"/><text class="catlabel" pointer-events="none" text-anchor="end" alignment-baseline="middle" x="-5" y="24.397838703221936" style="fill: rgb(42, 63, 95); font-family: 'Open Sans', verdana, arial, sans-serif; font-size: 10px; fill-opacity: 1; text-shadow: rgb(255, 255, 255) 1px 1px 1px, rgb(255, 255, 255) -1px -1px 1px, rgb(255, 255, 255) 1px -1px 1px, rgb(255, 255, 255) -1px 1px 1px; white-space: pre;">2012</text><text class="dimlabel" text-anchor="middle" alignment-baseline="baseline" cursor="ew-resize" x="8" y="-5" style="font-family: 'Open Sans', verdana, arial, sans-serif; font-size: 12px; fill: rgb(42, 63, 95); fill-opacity: 1;"/></g><g class="category" transform="translate(0,143.0610366219732)"><rect class="catrect" pointer-events="none" fill="none" width="16" height="59.891935161096654" stroke="black" stroke-width="1" stroke-opacity="1"/><rect class="bandrect" stroke-opacity="1" fill="#636efa" fill-opacity="1" width="16" height="59.891935161096654" y="0" cursor="ns-resize" stroke="black" stroke-width="0.2"/><text class="catlabel" pointer-events="none" text-anchor="end" alignment-baseline="middle" x="-5" y="29.945967580548327" style="fill: rgb(42, 63, 95); font-family: 'Open Sans', verdana, arial, sans-serif; font-size: 10px; fill-opacity: 1; text-shadow: rgb(255, 255, 255) 1px 1px 1px, rgb(255, 255, 255) -1px -1px 1px, rgb(255, 255, 255) 1px -1px 1px, rgb(255, 255, 255) -1px 1px 1px; white-space: pre;">2013</text><text class="dimlabel" text-anchor="middle" alignment-baseline="baseline" cursor="ew-resize" x="8" y="-5" style="font-family: 'Open Sans', verdana, arial, sans-serif; font-size: 12px; fill: rgb(42, 63, 95); fill-opacity: 1;"/></g><g class="category" transform="translate(0,210.95297178306984)"><rect class="catrect" pointer-events="none" fill="none" width="16" height="77.04702821693016" stroke="black" stroke-width="1" stroke-opacity="1"/><rect class="bandrect" stroke-opacity="1" fill="#636efa" fill-opacity="1" width="16" height="77.04702821693016" y="0" cursor="ns-resize" stroke="black" stroke-width="0.2"/><text class="catlabel" pointer-events="none" text-anchor="end" alignment-baseline="middle" x="-5" y="38.52351410846508" style="fill: rgb(42, 63, 95); font-family: 'Open Sans', verdana, arial, sans-serif; font-size: 10px; fill-opacity: 1; text-shadow: rgb(255, 255, 255) 1px 1px 1px, rgb(255, 255, 255) -1px -1px 1px, rgb(255, 255, 255) 1px -1px 1px, rgb(255, 255, 255) -1px 1px 1px; white-space: pre;">2014</text><text class="dimlabel" text-anchor="middle" alignment-baseline="baseline" cursor="ew-resize" x="8" y="-5" style="font-family: 'Open Sans', verdana, arial, sans-serif; font-size: 12px; fill: rgb(42, 63, 95); fill-opacity: 1;"/></g></g><g class="dimension" transform="translate(262,0)"><g class="category" transform=""><rect class="catrect" pointer-events="none" fill="none" width="16" height="8.983790274164498" stroke="black" stroke-width="1" stroke-opacity="1"/><rect class="bandrect" stroke-opacity="1" fill="#636efa" fill-opacity="1" width="16" height="8.983790274164498" y="0" cursor="ns-resize" stroke="black" stroke-width="0.2"/><text class="catlabel" pointer-events="none" text-anchor="end" alignment-baseline="middle" x="-5" y="4.491895137082249" style="fill: rgb(42, 63, 95); font-family: 'Open Sans', verdana, arial, sans-serif; font-size: 10px; fill-opacity: 1; text-shadow: rgb(255, 255, 255) 1px 1px 1px, rgb(255, 255, 255) -1px -1px 1px, rgb(255, 255, 255) 1px -1px 1px, rgb(255, 255, 255) -1px 1px 1px; white-space: pre;">1</text><text class="dimlabel" text-anchor="middle" alignment-baseline="baseline" cursor="ew-resize" x="8" y="-5" style="font-family: 'Open Sans', verdana, arial, sans-serif; font-size: 12px; fill: rgb(42, 63, 95); fill-opacity: 1;">Month</text></g><g class="category" transform="translate(0,16.983790274164498)"><rect class="catrect" pointer-events="none" fill="none" width="16" height="6.987392435461277" stroke="black" stroke-width="1" stroke-opacity="1"/><rect class="bandrect" stroke-opacity="1" fill="#636efa" fill-opacity="1" width="16" height="6.987392435461277" y="0" cursor="ns-resize" stroke="black" stroke-width="0.2"/><text class="catlabel" pointer-events="none" text-anchor="end" alignment-baseline="middle" x="-5" y="3.4936962177306383" style="fill: rgb(42, 63, 95); font-family: 'Open Sans', verdana, arial, sans-serif; font-size: 10px; fill-opacity: 1; text-shadow: rgb(255, 255, 255) 1px 1px 1px, rgb(255, 255, 255) -1px -1px 1px, rgb(255, 255, 255) 1px -1px 1px, rgb(255, 255, 255) -1px 1px 1px; white-space: pre;">2</text><text class="dimlabel" text-anchor="middle" alignment-baseline="baseline" cursor="ew-resize" x="8" y="-5" style="font-family: 'Open Sans', verdana, arial, sans-serif; font-size: 12px; fill: rgb(42, 63, 95); fill-opacity: 1;"/></g><g class="category" transform="translate(0,31.971182709625776)"><rect class="catrect" pointer-events="none" fill="none" width="16" height="15.785471282769663" stroke="black" stroke-width="1" stroke-opacity="1"/><rect class="bandrect" stroke-opacity="1" fill="#636efa" fill-opacity="1" width="16" height="15.785471282769663" y="0" cursor="ns-resize" stroke="black" stroke-width="0.2"/><text class="catlabel" pointer-events="none" text-anchor="end" alignment-baseline="middle" x="-5" y="7.8927356413848315" style="fill: rgb(42, 63, 95); font-family: 'Open Sans', verdana, arial, sans-serif; font-size: 10px; fill-opacity: 1; text-shadow: rgb(255, 255, 255) 1px 1px 1px, rgb(255, 255, 255) -1px -1px 1px, rgb(255, 255, 255) 1px -1px 1px, rgb(255, 255, 255) -1px 1px 1px; white-space: pre;">3</text><text class="dimlabel" text-anchor="middle" alignment-baseline="baseline" cursor="ew-resize" x="8" y="-5" style="font-family: 'Open Sans', verdana, arial, sans-serif; font-size: 12px; fill: rgb(42, 63, 95); fill-opacity: 1;"/></g><g class="category" transform="translate(0,55.75665399239544)"><rect class="catrect" pointer-events="none" fill="none" width="16" height="15.39083450070042" stroke="black" stroke-width="1" stroke-opacity="1"/><rect class="bandrect" stroke-opacity="1" fill="#636efa" fill-opacity="1" width="16" height="15.39083450070042" y="0" cursor="ns-resize" stroke="black" stroke-width="0.2"/><text class="catlabel" pointer-events="none" text-anchor="end" alignment-baseline="middle" x="-5" y="7.69541725035021" style="fill: rgb(42, 63, 95); font-family: 'Open Sans', verdana, arial, sans-serif; font-size: 10px; fill-opacity: 1; text-shadow: rgb(255, 255, 255) 1px 1px 1px, rgb(255, 255, 255) -1px -1px 1px, rgb(255, 255, 255) 1px -1px 1px, rgb(255, 255, 255) -1px 1px 1px; white-space: pre;">4</text><text class="dimlabel" text-anchor="middle" alignment-baseline="baseline" cursor="ew-resize" x="8" y="-5" style="font-family: 'Open Sans', verdana, arial, sans-serif; font-size: 12px; fill: rgb(42, 63, 95); fill-opacity: 1;"/></g><g class="category" transform="translate(0,79.14748849309586)"><rect class="catrect" pointer-events="none" fill="none" width="16" height="17.41044626776066" stroke="black" stroke-width="1" stroke-opacity="1"/><rect class="bandrect" stroke-opacity="1" fill="#636efa" fill-opacity="1" width="16" height="17.410446267760655" y="0" cursor="ns-resize" stroke="black" stroke-width="0.2"/><text class="catlabel" pointer-events="none" text-anchor="end" alignment-baseline="middle" x="-5" y="8.70522313388033" style="fill: rgb(42, 63, 95); font-family: 'Open Sans', verdana, arial, sans-serif; font-size: 10px; fill-opacity: 1; text-shadow: rgb(255, 255, 255) 1px 1px 1px, rgb(255, 255, 255) -1px -1px 1px, rgb(255, 255, 255) 1px -1px 1px, rgb(255, 255, 255) -1px 1px 1px; white-space: pre;">5</text><text class="dimlabel" text-anchor="middle" alignment-baseline="baseline" cursor="ew-resize" x="8" y="-5" style="font-family: 'Open Sans', verdana, arial, sans-serif; font-size: 12px; fill: rgb(42, 63, 95); fill-opacity: 1;"/></g><g class="category" transform="translate(0,104.55793476085653)"><rect class="catrect" pointer-events="none" fill="none" width="16" height="16.458675205123075" stroke="black" stroke-width="1" stroke-opacity="1"/><rect class="bandrect" stroke-opacity="1" fill="#636efa" fill-opacity="1" width="16" height="16.458675205123075" y="0" cursor="ns-resize" stroke="black" stroke-width="0.2"/><text class="catlabel" pointer-events="none" text-anchor="end" alignment-baseline="middle" x="-5" y="8.229337602561538" style="fill: rgb(42, 63, 95); font-family: 'Open Sans', verdana, arial, sans-serif; font-size: 10px; fill-opacity: 1; text-shadow: rgb(255, 255, 255) 1px 1px 1px, rgb(255, 255, 255) -1px -1px 1px, rgb(255, 255, 255) 1px -1px 1px, rgb(255, 255, 255) -1px 1px 1px; white-space: pre;">6</text><text class="dimlabel" text-anchor="middle" alignment-baseline="baseline" cursor="ew-resize" x="8" y="-5" style="font-family: 'Open Sans', verdana, arial, sans-serif; font-size: 12px; fill: rgb(42, 63, 95); fill-opacity: 1;"/></g><g class="category" transform="translate(0,129.0166099659796)"><rect class="catrect" pointer-events="none" fill="none" width="16" height="16.43546127676606" stroke="black" stroke-width="1" stroke-opacity="1"/><rect class="bandrect" stroke-opacity="1" fill="#636efa" fill-opacity="1" width="16" height="16.43546127676606" y="0" cursor="ns-resize" stroke="black" stroke-width="0.2"/><text class="catlabel" pointer-events="none" text-anchor="end" alignment-baseline="middle" x="-5" y="8.21773063838303" style="fill: rgb(42, 63, 95); font-family: 'Open Sans', verdana, arial, sans-serif; font-size: 10px; fill-opacity: 1; text-shadow: rgb(255, 255, 255) 1px 1px 1px, rgb(255, 255, 255) -1px -1px 1px, rgb(255, 255, 255) 1px -1px 1px, rgb(255, 255, 255) -1px 1px 1px; white-space: pre;">7</text><text class="dimlabel" text-anchor="middle" alignment-baseline="baseline" cursor="ew-resize" x="8" y="-5" style="font-family: 'Open Sans', verdana, arial, sans-serif; font-size: 12px; fill: rgb(42, 63, 95); fill-opacity: 1;"/></g><g class="category" transform="translate(0,153.45207124274566)"><rect class="catrect" pointer-events="none" fill="none" width="16" height="16.481889133480088" stroke="black" stroke-width="1" stroke-opacity="1"/><rect class="bandrect" stroke-opacity="1" fill="#636efa" fill-opacity="1" width="16" height="16.48188913348009" y="0" cursor="ns-resize" stroke="black" stroke-width="0.2"/><text class="catlabel" pointer-events="none" text-anchor="end" alignment-baseline="middle" x="-5" y="8.240944566740044" style="fill: rgb(42, 63, 95); font-family: 'Open Sans', verdana, arial, sans-serif; font-size: 10px; fill-opacity: 1; text-shadow: rgb(255, 255, 255) 1px 1px 1px, rgb(255, 255, 255) -1px -1px 1px, rgb(255, 255, 255) 1px -1px 1px, rgb(255, 255, 255) -1px 1px 1px; white-space: pre;">8</text><text class="dimlabel" text-anchor="middle" alignment-baseline="baseline" cursor="ew-resize" x="8" y="-5" style="font-family: 'Open Sans', verdana, arial, sans-serif; font-size: 12px; fill: rgb(42, 63, 95); fill-opacity: 1;"/></g><g class="category" transform="translate(0,177.93396037622574)"><rect class="catrect" pointer-events="none" fill="none" width="16" height="32.17450470282169" stroke="black" stroke-width="1" stroke-opacity="1"/><rect class="bandrect" stroke-opacity="1" fill="#636efa" fill-opacity="1" width="16" height="32.17450470282169" y="0" cursor="ns-resize" stroke="black" stroke-width="0.2"/><text class="catlabel" pointer-events="none" text-anchor="end" alignment-baseline="middle" x="-5" y="16.087252351410847" style="fill: rgb(42, 63, 95); font-family: 'Open Sans', verdana, arial, sans-serif; font-size: 10px; fill-opacity: 1; text-shadow: rgb(255, 255, 255) 1px 1px 1px, rgb(255, 255, 255) -1px -1px 1px, rgb(255, 255, 255) 1px -1px 1px, rgb(255, 255, 255) -1px 1px 1px; white-space: pre;">9</text><text class="dimlabel" text-anchor="middle" alignment-baseline="baseline" cursor="ew-resize" x="8" y="-5" style="font-family: 'Open Sans', verdana, arial, sans-serif; font-size: 12px; fill: rgb(42, 63, 95); fill-opacity: 1;"/></g><g class="category" transform="translate(0,218.10846507904745)"><rect class="catrect" pointer-events="none" fill="none" width="16" height="18.96577946768061" stroke="black" stroke-width="1" stroke-opacity="1"/><rect class="bandrect" stroke-opacity="1" fill="#636efa" fill-opacity="1" width="16" height="18.96577946768061" y="0" cursor="ns-resize" stroke="black" stroke-width="0.2"/><text class="catlabel" pointer-events="none" text-anchor="end" alignment-baseline="middle" x="-5" y="9.482889733840304" style="fill: rgb(42, 63, 95); font-family: 'Open Sans', verdana, arial, sans-serif; font-size: 10px; fill-opacity: 1; text-shadow: rgb(255, 255, 255) 1px 1px 1px, rgb(255, 255, 255) -1px -1px 1px, rgb(255, 255, 255) 1px -1px 1px, rgb(255, 255, 255) -1px 1px 1px; white-space: pre;">10</text><text class="dimlabel" text-anchor="middle" alignment-baseline="baseline" cursor="ew-resize" x="8" y="-5" style="font-family: 'Open Sans', verdana, arial, sans-serif; font-size: 12px; fill: rgb(42, 63, 95); fill-opacity: 1;"/></g><g class="category" transform="translate(0,245.07424454672807)"><rect class="catrect" pointer-events="none" fill="none" width="16" height="33.938763257954776" stroke="black" stroke-width="1" stroke-opacity="1"/><rect class="bandrect" stroke-opacity="1" fill="#636efa" fill-opacity="1" width="16" height="33.938763257954776" y="0" cursor="ns-resize" stroke="black" stroke-width="0.2"/><text class="catlabel" pointer-events="none" text-anchor="end" alignment-baseline="middle" x="-5" y="16.969381628977388" style="fill: rgb(42, 63, 95); font-family: 'Open Sans', verdana, arial, sans-serif; font-size: 10px; fill-opacity: 1; text-shadow: rgb(255, 255, 255) 1px 1px 1px, rgb(255, 255, 255) -1px -1px 1px, rgb(255, 255, 255) 1px -1px 1px, rgb(255, 255, 255) -1px 1px 1px; white-space: pre;">11</text><text class="dimlabel" text-anchor="middle" alignment-baseline="baseline" cursor="ew-resize" x="8" y="-5" style="font-family: 'Open Sans', verdana, arial, sans-serif; font-size: 12px; fill: rgb(42, 63, 95); fill-opacity: 1;"/></g><g class="category" transform="translate(0,287.01300780468284)"><rect class="catrect" pointer-events="none" fill="none" width="16" height="32.986992195317185" stroke="black" stroke-width="1" stroke-opacity="1"/><rect class="bandrect" stroke-opacity="1" fill="#636efa" fill-opacity="1" width="16" height="32.986992195317185" y="0" cursor="ns-resize" stroke="black" stroke-width="0.2"/><text class="catlabel" pointer-events="none" text-anchor="end" alignment-baseline="middle" x="-5" y="16.493496097658593" style="fill: rgb(42, 63, 95); font-family: 'Open Sans', verdana, arial, sans-serif; font-size: 10px; fill-opacity: 1; text-shadow: rgb(255, 255, 255) 1px 1px 1px, rgb(255, 255, 255) -1px -1px 1px, rgb(255, 255, 255) 1px -1px 1px, rgb(255, 255, 255) -1px 1px 1px; white-space: pre;">12</text><text class="dimlabel" text-anchor="middle" alignment-baseline="baseline" cursor="ew-resize" x="8" y="-5" style="font-family: 'Open Sans', verdana, arial, sans-serif; font-size: 12px; fill: rgb(42, 63, 95); fill-opacity: 1;"/></g></g><g class="dimension" transform="translate(484,0)"><g class="category" transform="translate(0,36)"><rect class="catrect" pointer-events="none" fill="none" width="16" height="139.88713227936762" stroke="black" stroke-width="1" stroke-opacity="1"/><rect class="bandrect" stroke-opacity="1" fill="#636efa" fill-opacity="1" width="16" height="139.88713227936762" y="0" cursor="ns-resize" stroke="black" stroke-width="0.2"/><text class="catlabel" pointer-events="none" text-anchor="start" alignment-baseline="middle" x="21" y="69.94356613968381" style="fill: rgb(42, 63, 95); font-family: 'Open Sans', verdana, arial, sans-serif; font-size: 10px; fill-opacity: 1; text-shadow: rgb(255, 255, 255) 1px 1px 1px, rgb(255, 255, 255) -1px -1px 1px, rgb(255, 255, 255) 1px -1px 1px, rgb(255, 255, 255) -1px 1px 1px; white-space: pre;">Office Supplies</text><text class="dimlabel" text-anchor="middle" alignment-baseline="baseline" cursor="ew-resize" x="8" y="-5" style="font-family: 'Open Sans', verdana, arial, sans-serif; font-size: 12px; fill: rgb(42, 63, 95); fill-opacity: 1;">Category</text></g><g class="category" transform="translate(0,183.88713227936762)"><rect class="catrect" pointer-events="none" fill="none" width="16" height="49.23674204522714" stroke="black" stroke-width="1" stroke-opacity="1"/><rect class="bandrect" stroke-opacity="1" fill="#636efa" fill-opacity="1" width="16" height="49.23674204522714" y="0" cursor="ns-resize" stroke="black" stroke-width="0.2"/><text class="catlabel" pointer-events="none" text-anchor="start" alignment-baseline="middle" x="21" y="24.61837102261357" style="fill: rgb(42, 63, 95); font-family: 'Open Sans', verdana, arial, sans-serif; font-size: 10px; fill-opacity: 1; text-shadow: rgb(255, 255, 255) 1px 1px 1px, rgb(255, 255, 255) -1px -1px 1px, rgb(255, 255, 255) 1px -1px 1px, rgb(255, 255, 255) -1px 1px 1px; white-space: pre;">Furniture</text><text class="dimlabel" text-anchor="middle" alignment-baseline="baseline" cursor="ew-resize" x="8" y="-5" style="font-family: 'Open Sans', verdana, arial, sans-serif; font-size: 12px; fill: rgb(42, 63, 95); fill-opacity: 1;"/></g><g class="category" transform="translate(0,241.12387432459477)"><rect class="catrect" pointer-events="none" fill="none" width="16" height="42.87612567540524" stroke="black" stroke-width="1" stroke-opacity="1"/><rect class="bandrect" stroke-opacity="1" fill="#636efa" fill-opacity="1" width="16" height="42.87612567540525" y="0" cursor="ns-resize" stroke="black" stroke-width="0.2"/><text class="catlabel" pointer-events="none" text-anchor="start" alignment-baseline="middle" x="21" y="21.43806283770262" style="fill: rgb(42, 63, 95); font-family: 'Open Sans', verdana, arial, sans-serif; font-size: 10px; fill-opacity: 1; text-shadow: rgb(255, 255, 255) 1px 1px 1px, rgb(255, 255, 255) -1px -1px 1px, rgb(255, 255, 255) 1px -1px 1px, rgb(255, 255, 255) -1px 1px 1px; white-space: pre;">Technology</text><text class="dimlabel" text-anchor="middle" alignment-baseline="baseline" cursor="ew-resize" x="8" y="-5" style="font-family: 'Open Sans', verdana, arial, sans-serif; font-size: 12px; fill: rgb(42, 63, 95); fill-opacity: 1;"/></g></g></g></g></g><defs id="topdefs-ce8d1b"><g class="clips"/></defs><g class="layer-above"><g class="imagelayer"/><g class="shapelayer"/></g><g class="infolayer"><g class="g-gtitle"><text class="gtitle" x="35" y="50" text-anchor="start" dy="0em" style="opacity: 1; font-family: 'Open Sans', verdana, arial, sans-serif; font-size: 17px; fill: rgb(42, 63, 95); fill-opacity: 1; white-space: pre;">Sales Flow by Year, Month and Category</text></g></g></svg>