<?xml version="1.0" encoding="utf-8" standalone="no"?>
<!DOCTYPE svg PUBLIC "-//W3C//DTD SVG 1.1//EN"
  "http://www.w3.org/Graphics/SVG/1.1/DTD/svg11.dtd">
<svg xmlns:xlink="http://www.w3.org/1999/xlink" width="576pt" height="432pt" viewBox="0 0 576 432" xmlns="http://www.w3.org/2000/svg" version="1.1">
 <metadata>
  <rdf:RDF xmlns:dc="http://purl.org/dc/elements/1.1/" xmlns:cc="http://creativecommons.org/ns#" xmlns:rdf="http://www.w3.org/1999/02/22-rdf-syntax-ns#">
   <cc:Work>
    <dc:type rdf:resource="http://purl.org/dc/dcmitype/StillImage"/>
    <dc:date>2025-03-28T19:40:54.945662</dc:date>
    <dc:format>image/svg+xml</dc:format>
    <dc:creator>
     <cc:Agent>
      <dc:title>Matplotlib v3.7.5, https://matplotlib.org/</dc:title>
     </cc:Agent>
    </dc:creator>
   </cc:Work>
  </rdf:RDF>
 </metadata>
 <defs>
  <style type="text/css">*{stroke-linejoin: round; stroke-linecap: butt}</style>
 </defs>
 <g id="figure_1">
  <g id="patch_1">
   <path d="M 0 432 
L 576 432 
L 576 0 
L 0 0 
z
" style="fill: #ffffff"/>
  </g>
  <g id="axes_1">
   <g id="patch_2">
    <path d="M 72 384.48 
L 518.4 384.48 
L 518.4 51.84 
L 72 51.84 
z
" style="fill: #ffffff"/>
   </g>
   <g id="PolyCollection_1">
    <defs>
     <path id="mee1413a32f" d="M 149.230395 -66.819076 
L 143.569605 -66.819076 
L 140.783255 -69.789196 
L 136.721933 -72.759315 
L 131.883287 -75.729435 
L 127.319612 -78.699555 
L 124.060707 -81.669674 
L 122.219124 -84.639794 
L 120.504808 -87.609914 
L 116.816719 -90.580034 
L 109.802928 -93.550153 
L 100.326386 -96.520273 
L 91.50394 -99.490393 
L 86.88 -102.460512 
L 87.867313 -105.430632 
L 92.487039 -108.400752 
L 96.621672 -111.370871 
L 96.975905 -114.340991 
L 93.485898 -117.311111 
L 89.305242 -120.28123 
L 88.388908 -123.25135 
L 92.566073 -126.22147 
L 100.343866 -129.191589 
L 108.224081 -132.161709 
L 113.30184 -135.131829 
L 115.068497 -138.101948 
L 115.216855 -141.072068 
L 115.89605 -144.042188 
L 117.931255 -147.012307 
L 120.346023 -149.982427 
L 121.402706 -152.952547 
L 120.215416 -155.922666 
L 117.629953 -158.892786 
L 115.700856 -161.862906 
L 116.206303 -164.833025 
L 119.38279 -167.803145 
L 123.84807 -170.773265 
L 127.689086 -173.743384 
L 129.785221 -176.713504 
L 130.367826 -179.683624 
L 130.528289 -182.653743 
L 131.200116 -185.623863 
L 132.444051 -188.593983 
L 133.530173 -191.564102 
L 133.661913 -194.534222 
L 132.721175 -197.504342 
L 131.446741 -200.474461 
L 130.925259 -203.444581 
L 131.811208 -206.414701 
L 133.888983 -209.38482 
L 136.289495 -212.35494 
L 138.136213 -215.32506 
L 139.091516 -218.29518 
L 139.429044 -221.265299 
L 139.669982 -224.235419 
L 140.127097 -227.205539 
L 140.703896 -230.175658 
L 141.055297 -233.145778 
L 140.937351 -236.115898 
L 140.454668 -239.086017 
L 140.018581 -242.056137 
L 140.06235 -245.026257 
L 140.744223 -247.996376 
L 141.864007 -250.966496 
L 143.032278 -253.936616 
L 143.932029 -256.906735 
L 144.47257 -259.876855 
L 144.76001 -262.846975 
L 144.957528 -265.817094 
L 145.161219 -268.787214 
L 145.367149 -271.757334 
L 145.52094 -274.727453 
L 145.588824 -277.697573 
L 145.592465 -280.667693 
L 145.590595 -283.637812 
L 145.632466 -286.607932 
L 145.723728 -289.578052 
L 145.829137 -292.548171 
L 145.904932 -295.518291 
L 145.932284 -298.488411 
L 145.926575 -301.45853 
L 145.918821 -304.42865 
L 145.926812 -307.39877 
L 145.939671 -310.368889 
L 145.927892 -313.339009 
L 145.870819 -316.309129 
L 145.779468 -319.279248 
L 145.695066 -322.249368 
L 145.661942 -325.219488 
L 145.694696 -328.189607 
L 145.766169 -331.159727 
L 145.827035 -334.129847 
L 145.842218 -337.099966 
L 145.815964 -340.070086 
L 145.787209 -343.040206 
L 145.800431 -346.010326 
L 145.875289 -348.980445 
L 145.996927 -351.950565 
L 146.130278 -354.920685 
L 146.243243 -357.890804 
L 146.320965 -360.860924 
L 146.479035 -360.860924 
L 146.479035 -360.860924 
L 146.556757 -357.890804 
L 146.669722 -354.920685 
L 146.803073 -351.950565 
L 146.924711 -348.980445 
L 146.999569 -346.010326 
L 147.012791 -343.040206 
L 146.984036 -340.070086 
L 146.957782 -337.099966 
L 146.972965 -334.129847 
L 147.033831 -331.159727 
L 147.105304 -328.189607 
L 147.138058 -325.219488 
L 147.104934 -322.249368 
L 147.020532 -319.279248 
L 146.929181 -316.309129 
L 146.872108 -313.339009 
L 146.860329 -310.368889 
L 146.873188 -307.39877 
L 146.881179 -304.42865 
L 146.873425 -301.45853 
L 146.867716 -298.488411 
L 146.895068 -295.518291 
L 146.970863 -292.548171 
L 147.076272 -289.578052 
L 147.167534 -286.607932 
L 147.209405 -283.637812 
L 147.207535 -280.667693 
L 147.211176 -277.697573 
L 147.27906 -274.727453 
L 147.432851 -271.757334 
L 147.638781 -268.787214 
L 147.842472 -265.817094 
L 148.03999 -262.846975 
L 148.32743 -259.876855 
L 148.867971 -256.906735 
L 149.767722 -253.936616 
L 150.935993 -250.966496 
L 152.055777 -247.996376 
L 152.73765 -245.026257 
L 152.781419 -242.056137 
L 152.345332 -239.086017 
L 151.862649 -236.115898 
L 151.744703 -233.145778 
L 152.096104 -230.175658 
L 152.672903 -227.205539 
L 153.130018 -224.235419 
L 153.370956 -221.265299 
L 153.708484 -218.29518 
L 154.663787 -215.32506 
L 156.510505 -212.35494 
L 158.911017 -209.38482 
L 160.988792 -206.414701 
L 161.874741 -203.444581 
L 161.353259 -200.474461 
L 160.078825 -197.504342 
L 159.138087 -194.534222 
L 159.269827 -191.564102 
L 160.355949 -188.593983 
L 161.599884 -185.623863 
L 162.271711 -182.653743 
L 162.432174 -179.683624 
L 163.014779 -176.713504 
L 165.110914 -173.743384 
L 168.95193 -170.773265 
L 173.41721 -167.803145 
L 176.593697 -164.833025 
L 177.099144 -161.862906 
L 175.170047 -158.892786 
L 172.584584 -155.922666 
L 171.397294 -152.952547 
L 172.453977 -149.982427 
L 174.868745 -147.012307 
L 176.90395 -144.042188 
L 177.583145 -141.072068 
L 177.731503 -138.101948 
L 179.49816 -135.131829 
L 184.575919 -132.161709 
L 192.456134 -129.191589 
L 200.233927 -126.22147 
L 204.411092 -123.25135 
L 203.494758 -120.28123 
L 199.314102 -117.311111 
L 195.824095 -114.340991 
L 196.178328 -111.370871 
L 200.312961 -108.400752 
L 204.932687 -105.430632 
L 205.92 -102.460512 
L 201.29606 -99.490393 
L 192.473614 -96.520273 
L 182.997072 -93.550153 
L 175.983281 -90.580034 
L 172.295192 -87.609914 
L 170.580876 -84.639794 
L 168.739293 -81.669674 
L 165.480388 -78.699555 
L 160.916713 -75.729435 
L 156.078067 -72.759315 
L 152.016745 -69.789196 
L 149.230395 -66.819076 
z
" style="stroke: #6e6e6e; stroke-width: 1.25"/>
    </defs>
    <g clip-path="url(#p33094dff4e)">
     <use xlink:href="#mee1413a32f" x="0" y="432" style="fill: #9bb5f0; stroke: #6e6e6e; stroke-width: 1.25"/>
    </g>
   </g>
   <g id="PolyCollection_2">
    <defs>
     <path id="madef172f68" d="M 297.667704 -62.879174 
L 292.732296 -62.879174 
L 290.805961 -65.928888 
L 288.065203 -68.978601 
L 284.599022 -72.028315 
L 280.697412 -75.078029 
L 276.737928 -78.127742 
L 272.962425 -81.177456 
L 269.277596 -84.22717 
L 265.259412 -87.276883 
L 260.440309 -90.326597 
L 254.739727 -93.376311 
L 248.724917 -96.426024 
L 243.438498 -99.475738 
L 239.824721 -102.525452 
L 238.125978 -105.575165 
L 237.713211 -108.624879 
L 237.532416 -111.674593 
L 236.880583 -114.724306 
L 235.943053 -117.77402 
L 235.68 -120.823734 
L 237.137878 -123.873447 
L 240.695339 -126.923161 
L 245.786017 -129.972875 
L 251.258104 -133.022588 
L 256.054735 -136.072302 
L 259.706458 -139.122015 
L 262.337875 -142.171729 
L 264.295415 -145.221443 
L 265.765568 -148.271156 
L 266.689992 -151.32087 
L 266.989254 -154.370584 
L 266.842878 -157.420297 
L 266.746722 -160.470011 
L 267.276708 -163.519725 
L 268.741252 -166.569438 
L 270.994216 -169.619152 
L 273.545358 -172.668866 
L 275.871369 -175.718579 
L 277.69154 -178.768293 
L 279.027724 -181.818007 
L 280.053258 -184.86772 
L 280.890645 -187.917434 
L 281.527074 -190.967148 
L 281.893102 -194.016861 
L 282.007623 -197.066575 
L 282.046467 -200.116289 
L 282.268266 -203.166002 
L 282.856056 -206.215716 
L 283.801198 -209.26543 
L 284.917461 -212.315143 
L 285.96733 -215.364857 
L 286.800022 -218.41457 
L 287.404018 -221.464284 
L 287.854322 -224.513998 
L 288.21686 -227.563711 
L 288.494884 -230.613425 
L 288.654888 -233.663139 
L 288.69817 -236.712852 
L 288.7082 -239.762566 
L 288.828327 -242.81228 
L 289.18398 -245.861993 
L 289.807676 -248.911707 
L 290.620453 -251.961421 
L 291.478414 -255.011134 
L 292.247203 -258.060848 
L 292.854898 -261.110562 
L 293.298154 -264.160275 
L 293.612426 -267.209989 
L 293.836436 -270.259703 
L 293.994535 -273.309416 
L 294.100023 -276.35913 
L 294.166426 -279.408844 
L 294.21247 -282.458557 
L 294.256626 -285.508271 
L 294.307955 -288.557985 
L 294.362717 -291.607698 
L 294.410233 -294.657412 
L 294.443147 -297.707125 
L 294.463692 -300.756839 
L 294.481393 -303.806553 
L 294.504832 -306.856266 
L 294.534712 -309.90598 
L 294.563746 -312.955694 
L 294.582866 -316.005407 
L 294.588045 -319.055121 
L 294.581967 -322.104835 
L 294.569586 -325.154548 
L 294.552136 -328.204262 
L 294.525598 -331.253976 
L 294.485835 -334.303689 
L 294.436584 -337.353403 
L 294.393381 -340.403117 
L 294.379063 -343.45283 
L 294.412795 -346.502544 
L 294.499624 -349.552258 
L 294.627286 -352.601971 
L 294.771896 -355.651685 
L 294.908347 -358.701399 
L 295.019207 -361.751112 
L 295.098112 -364.800826 
L 295.301888 -364.800826 
L 295.301888 -364.800826 
L 295.380793 -361.751112 
L 295.491653 -358.701399 
L 295.628104 -355.651685 
L 295.772714 -352.601971 
L 295.900376 -349.552258 
L 295.987205 -346.502544 
L 296.020937 -343.45283 
L 296.006619 -340.403117 
L 295.963416 -337.353403 
L 295.914165 -334.303689 
L 295.874402 -331.253976 
L 295.847864 -328.204262 
L 295.830414 -325.154548 
L 295.818033 -322.104835 
L 295.811955 -319.055121 
L 295.817134 -316.005407 
L 295.836254 -312.955694 
L 295.865288 -309.90598 
L 295.895168 -306.856266 
L 295.918607 -303.806553 
L 295.936308 -300.756839 
L 295.956853 -297.707125 
L 295.989767 -294.657412 
L 296.037283 -291.607698 
L 296.092045 -288.557985 
L 296.143374 -285.508271 
L 296.18753 -282.458557 
L 296.233574 -279.408844 
L 296.299977 -276.35913 
L 296.405465 -273.309416 
L 296.563564 -270.259703 
L 296.787574 -267.209989 
L 297.101846 -264.160275 
L 297.545102 -261.110562 
L 298.152797 -258.060848 
L 298.921586 -255.011134 
L 299.779547 -251.961421 
L 300.592324 -248.911707 
L 301.21602 -245.861993 
L 301.571673 -242.81228 
L 301.6918 -239.762566 
L 301.70183 -236.712852 
L 301.745112 -233.663139 
L 301.905116 -230.613425 
L 302.18314 -227.563711 
L 302.545678 -224.513998 
L 302.995982 -221.464284 
L 303.599978 -218.41457 
L 304.43267 -215.364857 
L 305.482539 -212.315143 
L 306.598802 -209.26543 
L 307.543944 -206.215716 
L 308.131734 -203.166002 
L 308.353533 -200.116289 
L 308.392377 -197.066575 
L 308.506898 -194.016861 
L 308.872926 -190.967148 
L 309.509355 -187.917434 
L 310.346742 -184.86772 
L 311.372276 -181.818007 
L 312.70846 -178.768293 
L 314.528631 -175.718579 
L 316.854642 -172.668866 
L 319.405784 -169.619152 
L 321.658748 -166.569438 
L 323.123292 -163.519725 
L 323.653278 -160.470011 
L 323.557122 -157.420297 
L 323.410746 -154.370584 
L 323.710008 -151.32087 
L 324.634432 -148.271156 
L 326.104585 -145.221443 
L 328.062125 -142.171729 
L 330.693542 -139.122015 
L 334.345265 -136.072302 
L 339.141896 -133.022588 
L 344.613983 -129.972875 
L 349.704661 -126.923161 
L 353.262122 -123.873447 
L 354.72 -120.823734 
L 354.456947 -117.77402 
L 353.519417 -114.724306 
L 352.867584 -111.674593 
L 352.686789 -108.624879 
L 352.274022 -105.575165 
L 350.575279 -102.525452 
L 346.961502 -99.475738 
L 341.675083 -96.426024 
L 335.660273 -93.376311 
L 329.959691 -90.326597 
L 325.140588 -87.276883 
L 321.122404 -84.22717 
L 317.437575 -81.177456 
L 313.662072 -78.127742 
L 309.702588 -75.078029 
L 305.800978 -72.028315 
L 302.334797 -68.978601 
L 299.594039 -65.928888 
L 297.667704 -62.879174 
z
" style="stroke: #6e6e6e; stroke-width: 1.25"/>
    </defs>
    <g clip-path="url(#p33094dff4e)">
     <use xlink:href="#madef172f68" x="0" y="432" style="fill: #dddcdc; stroke: #6e6e6e; stroke-width: 1.25"/>
    </g>
   </g>
   <g id="PolyCollection_3">
    <defs>
     <path id="m3dc4a2dd88" d="M 446.472778 -62.64 
L 441.527222 -62.64 
L 439.619705 -65.694545 
L 436.909217 -68.749091 
L 433.474185 -71.803636 
L 429.584483 -74.858182 
L 425.597961 -77.912727 
L 421.753872 -80.967273 
L 417.984784 -84.021818 
L 413.9132 -87.076364 
L 409.109593 -90.130909 
L 403.489788 -93.185455 
L 397.566649 -96.24 
L 392.308127 -99.294545 
L 388.618317 -102.349091 
L 386.772282 -105.403636 
L 386.232828 -108.458182 
L 386.033554 -111.512727 
L 385.485301 -114.567273 
L 384.691487 -117.621818 
L 384.48 -120.676364 
L 385.796407 -123.730909 
L 389.010072 -126.785455 
L 393.636452 -129.84 
L 398.64348 -132.894545 
L 403.069676 -135.949091 
L 406.486475 -139.003636 
L 409.015695 -142.058182 
L 410.986534 -145.112727 
L 412.572616 -148.167273 
L 413.704492 -151.221818 
L 414.280641 -154.276364 
L 414.443896 -157.330909 
L 414.653201 -160.385455 
L 415.470293 -163.44 
L 417.223413 -166.494545 
L 419.805541 -169.549091 
L 422.749091 -172.603636 
L 425.503275 -175.658182 
L 427.703691 -178.712727 
L 429.262519 -181.767273 
L 430.268306 -184.821818 
L 430.825544 -187.876364 
L 430.979986 -190.930909 
L 430.772988 -193.985455 
L 430.345398 -197.04 
L 429.970607 -200.094545 
L 429.963049 -203.149091 
L 430.519389 -206.203636 
L 431.610322 -209.258182 
L 433.003732 -212.312727 
L 434.400155 -215.367273 
L 435.582613 -218.421818 
L 436.484647 -221.476364 
L 437.152526 -224.530909 
L 437.656067 -227.585455 
L 438.026976 -230.64 
L 438.264341 -233.694545 
L 438.384414 -236.749091 
L 438.458217 -239.803636 
L 438.597827 -242.858182 
L 438.899654 -245.912727 
L 439.389021 -248.967273 
L 440.007592 -252.021818 
L 440.650353 -255.076364 
L 441.222891 -258.130909 
L 441.680196 -261.185455 
L 442.02793 -264.24 
L 442.296117 -267.294545 
L 442.510616 -270.349091 
L 442.681577 -273.403636 
L 442.810063 -276.458182 
L 442.900327 -279.512727 
L 442.964744 -282.567273 
L 443.018224 -285.621818 
L 443.06904 -288.676364 
L 443.115236 -291.730909 
L 443.149818 -294.785455 
L 443.169905 -297.84 
L 443.181789 -300.894545 
L 443.197739 -303.949091 
L 443.227401 -307.003636 
L 443.270961 -310.058182 
L 443.319352 -313.112727 
L 443.360854 -316.167273 
L 443.38842 -319.221818 
L 443.402098 -322.276364 
L 443.405507 -325.330909 
L 443.400447 -328.385455 
L 443.385068 -331.44 
L 443.357588 -334.494545 
L 443.322445 -337.549091 
L 443.293165 -340.603636 
L 443.288516 -343.658182 
L 443.323647 -346.712727 
L 443.40192 -349.767273 
L 443.512697 -352.821818 
L 443.636184 -355.876364 
L 443.751885 -358.930909 
L 443.845699 -361.985455 
L 443.912578 -365.04 
L 444.087422 -365.04 
L 444.087422 -365.04 
L 444.154301 -361.985455 
L 444.248115 -358.930909 
L 444.363816 -355.876364 
L 444.487303 -352.821818 
L 444.59808 -349.767273 
L 444.676353 -346.712727 
L 444.711484 -343.658182 
L 444.706835 -340.603636 
L 444.677555 -337.549091 
L 444.642412 -334.494545 
L 444.614932 -331.44 
L 444.599553 -328.385455 
L 444.594493 -325.330909 
L 444.597902 -322.276364 
L 444.61158 -319.221818 
L 444.639146 -316.167273 
L 444.680648 -313.112727 
L 444.729039 -310.058182 
L 444.772599 -307.003636 
L 444.802261 -303.949091 
L 444.818211 -300.894545 
L 444.830095 -297.84 
L 444.850182 -294.785455 
L 444.884764 -291.730909 
L 444.93096 -288.676364 
L 444.981776 -285.621818 
L 445.035256 -282.567273 
L 445.099673 -279.512727 
L 445.189937 -276.458182 
L 445.318423 -273.403636 
L 445.489384 -270.349091 
L 445.703883 -267.294545 
L 445.97207 -264.24 
L 446.319804 -261.185455 
L 446.777109 -258.130909 
L 447.349647 -255.076364 
L 447.992408 -252.021818 
L 448.610979 -248.967273 
L 449.100346 -245.912727 
L 449.402173 -242.858182 
L 449.541783 -239.803636 
L 449.615586 -236.749091 
L 449.735659 -233.694545 
L 449.973024 -230.64 
L 450.343933 -227.585455 
L 450.847474 -224.530909 
L 451.515353 -221.476364 
L 452.417387 -218.421818 
L 453.599845 -215.367273 
L 454.996268 -212.312727 
L 456.389678 -209.258182 
L 457.480611 -206.203636 
L 458.036951 -203.149091 
L 458.029393 -200.094545 
L 457.654602 -197.04 
L 457.227012 -193.985455 
L 457.020014 -190.930909 
L 457.174456 -187.876364 
L 457.731694 -184.821818 
L 458.737481 -181.767273 
L 460.296309 -178.712727 
L 462.496725 -175.658182 
L 465.250909 -172.603636 
L 468.194459 -169.549091 
L 470.776587 -166.494545 
L 472.529707 -163.44 
L 473.346799 -160.385455 
L 473.556104 -157.330909 
L 473.719359 -154.276364 
L 474.295508 -151.221818 
L 475.427384 -148.167273 
L 477.013466 -145.112727 
L 478.984305 -142.058182 
L 481.513525 -139.003636 
L 484.930324 -135.949091 
L 489.35652 -132.894545 
L 494.363548 -129.84 
L 498.989928 -126.785455 
L 502.203593 -123.730909 
L 503.52 -120.676364 
L 503.308513 -117.621818 
L 502.514699 -114.567273 
L 501.966446 -111.512727 
L 501.767172 -108.458182 
L 501.227718 -105.403636 
L 499.381683 -102.349091 
L 495.691873 -99.294545 
L 490.433351 -96.24 
L 484.510212 -93.185455 
L 478.890407 -90.130909 
L 474.0868 -87.076364 
L 470.015216 -84.021818 
L 466.246128 -80.967273 
L 462.402039 -77.912727 
L 458.415517 -74.858182 
L 454.525815 -71.803636 
L 451.090783 -68.749091 
L 448.380295 -65.694545 
L 446.472778 -62.64 
z
" style="stroke: #6e6e6e; stroke-width: 1.25"/>
    </defs>
    <g clip-path="url(#p33094dff4e)">
     <use xlink:href="#m3dc4a2dd88" x="0" y="432" style="fill: #e5a089; stroke: #6e6e6e; stroke-width: 1.25"/>
    </g>
   </g>
   <g id="matplotlib.axis_1">
    <g id="xtick_1">
     <g id="line2d_1">
      <defs>
       <path id="m7c910fa4a7" d="M 0 0 
L 0 3.5 
" style="stroke: #000000; stroke-width: 0.8"/>
      </defs>
      <g>
       <use xlink:href="#m7c910fa4a7" x="146.4" y="384.48" style="stroke: #000000; stroke-width: 0.8"/>
      </g>
     </g>
     <g id="text_1">
      <!-- Office Supplies -->
      <g transform="translate(121.897645 449.759962) rotate(-45) scale(0.1 -0.1)">
       <defs>
        <path id="DejaVuSans-4f" d="M 2522 4238 
Q 1834 4238 1429 3725 
Q 1025 3213 1025 2328 
Q 1025 1447 1429 934 
Q 1834 422 2522 422 
Q 3209 422 3611 934 
Q 4013 1447 4013 2328 
Q 4013 3213 3611 3725 
Q 3209 4238 2522 4238 
z
M 2522 4750 
Q 3503 4750 4090 4092 
Q 4678 3434 4678 2328 
Q 4678 1225 4090 567 
Q 3503 -91 2522 -91 
Q 1538 -91 948 565 
Q 359 1222 359 2328 
Q 359 3434 948 4092 
Q 1538 4750 2522 4750 
z
" transform="scale(0.015625)"/>
        <path id="DejaVuSans-66" d="M 2375 4863 
L 2375 4384 
L 1825 4384 
Q 1516 4384 1395 4259 
Q 1275 4134 1275 3809 
L 1275 3500 
L 2222 3500 
L 2222 3053 
L 1275 3053 
L 1275 0 
L 697 0 
L 697 3053 
L 147 3053 
L 147 3500 
L 697 3500 
L 697 3744 
Q 697 4328 969 4595 
Q 1241 4863 1831 4863 
L 2375 4863 
z
" transform="scale(0.015625)"/>
        <path id="DejaVuSans-69" d="M 603 3500 
L 1178 3500 
L 1178 0 
L 603 0 
L 603 3500 
z
M 603 4863 
L 1178 4863 
L 1178 4134 
L 603 4134 
L 603 4863 
z
" transform="scale(0.015625)"/>
        <path id="DejaVuSans-63" d="M 3122 3366 
L 3122 2828 
Q 2878 2963 2633 3030 
Q 2388 3097 2138 3097 
Q 1578 3097 1268 2742 
Q 959 2388 959 1747 
Q 959 1106 1268 751 
Q 1578 397 2138 397 
Q 2388 397 2633 464 
Q 2878 531 3122 666 
L 3122 134 
Q 2881 22 2623 -34 
Q 2366 -91 2075 -91 
Q 1284 -91 818 406 
Q 353 903 353 1747 
Q 353 2603 823 3093 
Q 1294 3584 2113 3584 
Q 2378 3584 2631 3529 
Q 2884 3475 3122 3366 
z
" transform="scale(0.015625)"/>
        <path id="DejaVuSans-65" d="M 3597 1894 
L 3597 1613 
L 953 1613 
Q 991 1019 1311 708 
Q 1631 397 2203 397 
Q 2534 397 2845 478 
Q 3156 559 3463 722 
L 3463 178 
Q 3153 47 2828 -22 
Q 2503 -91 2169 -91 
Q 1331 -91 842 396 
Q 353 884 353 1716 
Q 353 2575 817 3079 
Q 1281 3584 2069 3584 
Q 2775 3584 3186 3129 
Q 3597 2675 3597 1894 
z
M 3022 2063 
Q 3016 2534 2758 2815 
Q 2500 3097 2075 3097 
Q 1594 3097 1305 2825 
Q 1016 2553 972 2059 
L 3022 2063 
z
" transform="scale(0.015625)"/>
        <path id="DejaVuSans-20" transform="scale(0.015625)"/>
        <path id="DejaVuSans-53" d="M 3425 4513 
L 3425 3897 
Q 3066 4069 2747 4153 
Q 2428 4238 2131 4238 
Q 1616 4238 1336 4038 
Q 1056 3838 1056 3469 
Q 1056 3159 1242 3001 
Q 1428 2844 1947 2747 
L 2328 2669 
Q 3034 2534 3370 2195 
Q 3706 1856 3706 1288 
Q 3706 609 3251 259 
Q 2797 -91 1919 -91 
Q 1588 -91 1214 -16 
Q 841 59 441 206 
L 441 856 
Q 825 641 1194 531 
Q 1563 422 1919 422 
Q 2459 422 2753 634 
Q 3047 847 3047 1241 
Q 3047 1584 2836 1778 
Q 2625 1972 2144 2069 
L 1759 2144 
Q 1053 2284 737 2584 
Q 422 2884 422 3419 
Q 422 4038 858 4394 
Q 1294 4750 2059 4750 
Q 2388 4750 2728 4690 
Q 3069 4631 3425 4513 
z
" transform="scale(0.015625)"/>
        <path id="DejaVuSans-75" d="M 544 1381 
L 544 3500 
L 1119 3500 
L 1119 1403 
Q 1119 906 1312 657 
Q 1506 409 1894 409 
Q 2359 409 2629 706 
Q 2900 1003 2900 1516 
L 2900 3500 
L 3475 3500 
L 3475 0 
L 2900 0 
L 2900 538 
Q 2691 219 2414 64 
Q 2138 -91 1772 -91 
Q 1169 -91 856 284 
Q 544 659 544 1381 
z
M 1991 3584 
L 1991 3584 
z
" transform="scale(0.015625)"/>
        <path id="DejaVuSans-70" d="M 1159 525 
L 1159 -1331 
L 581 -1331 
L 581 3500 
L 1159 3500 
L 1159 2969 
Q 1341 3281 1617 3432 
Q 1894 3584 2278 3584 
Q 2916 3584 3314 3078 
Q 3713 2572 3713 1747 
Q 3713 922 3314 415 
Q 2916 -91 2278 -91 
Q 1894 -91 1617 61 
Q 1341 213 1159 525 
z
M 3116 1747 
Q 3116 2381 2855 2742 
Q 2594 3103 2138 3103 
Q 1681 3103 1420 2742 
Q 1159 2381 1159 1747 
Q 1159 1113 1420 752 
Q 1681 391 2138 391 
Q 2594 391 2855 752 
Q 3116 1113 3116 1747 
z
" transform="scale(0.015625)"/>
        <path id="DejaVuSans-6c" d="M 603 4863 
L 1178 4863 
L 1178 0 
L 603 0 
L 603 4863 
z
" transform="scale(0.015625)"/>
        <path id="DejaVuSans-73" d="M 2834 3397 
L 2834 2853 
Q 2591 2978 2328 3040 
Q 2066 3103 1784 3103 
Q 1356 3103 1142 2972 
Q 928 2841 928 2578 
Q 928 2378 1081 2264 
Q 1234 2150 1697 2047 
L 1894 2003 
Q 2506 1872 2764 1633 
Q 3022 1394 3022 966 
Q 3022 478 2636 193 
Q 2250 -91 1575 -91 
Q 1294 -91 989 -36 
Q 684 19 347 128 
L 347 722 
Q 666 556 975 473 
Q 1284 391 1588 391 
Q 1994 391 2212 530 
Q 2431 669 2431 922 
Q 2431 1156 2273 1281 
Q 2116 1406 1581 1522 
L 1381 1569 
Q 847 1681 609 1914 
Q 372 2147 372 2553 
Q 372 3047 722 3315 
Q 1072 3584 1716 3584 
Q 2034 3584 2315 3537 
Q 2597 3491 2834 3397 
z
" transform="scale(0.015625)"/>
       </defs>
       <use xlink:href="#DejaVuSans-4f"/>
       <use xlink:href="#DejaVuSans-66" x="78.710938"/>
       <use xlink:href="#DejaVuSans-66" x="113.916016"/>
       <use xlink:href="#DejaVuSans-69" x="149.121094"/>
       <use xlink:href="#DejaVuSans-63" x="176.904297"/>
       <use xlink:href="#DejaVuSans-65" x="231.884766"/>
       <use xlink:href="#DejaVuSans-20" x="293.408203"/>
       <use xlink:href="#DejaVuSans-53" x="325.195312"/>
       <use xlink:href="#DejaVuSans-75" x="388.671875"/>
       <use xlink:href="#DejaVuSans-70" x="452.050781"/>
       <use xlink:href="#DejaVuSans-70" x="515.527344"/>
       <use xlink:href="#DejaVuSans-6c" x="579.003906"/>
       <use xlink:href="#DejaVuSans-69" x="606.787109"/>
       <use xlink:href="#DejaVuSans-65" x="634.570312"/>
       <use xlink:href="#DejaVuSans-73" x="696.09375"/>
      </g>
     </g>
    </g>
    <g id="xtick_2">
     <g id="line2d_2">
      <g>
       <use xlink:href="#m7c910fa4a7" x="295.2" y="384.48" style="stroke: #000000; stroke-width: 0.8"/>
      </g>
     </g>
     <g id="text_2">
      <!-- Furniture -->
      <g transform="translate(281.281045 428.593162) rotate(-45) scale(0.1 -0.1)">
       <defs>
        <path id="DejaVuSans-46" d="M 628 4666 
L 3309 4666 
L 3309 4134 
L 1259 4134 
L 1259 2759 
L 3109 2759 
L 3109 2228 
L 1259 2228 
L 1259 0 
L 628 0 
L 628 4666 
z
" transform="scale(0.015625)"/>
        <path id="DejaVuSans-72" d="M 2631 2963 
Q 2534 3019 2420 3045 
Q 2306 3072 2169 3072 
Q 1681 3072 1420 2755 
Q 1159 2438 1159 1844 
L 1159 0 
L 581 0 
L 581 3500 
L 1159 3500 
L 1159 2956 
Q 1341 3275 1631 3429 
Q 1922 3584 2338 3584 
Q 2397 3584 2469 3576 
Q 2541 3569 2628 3553 
L 2631 2963 
z
" transform="scale(0.015625)"/>
        <path id="DejaVuSans-6e" d="M 3513 2113 
L 3513 0 
L 2938 0 
L 2938 2094 
Q 2938 2591 2744 2837 
Q 2550 3084 2163 3084 
Q 1697 3084 1428 2787 
Q 1159 2491 1159 1978 
L 1159 0 
L 581 0 
L 581 3500 
L 1159 3500 
L 1159 2956 
Q 1366 3272 1645 3428 
Q 1925 3584 2291 3584 
Q 2894 3584 3203 3211 
Q 3513 2838 3513 2113 
z
" transform="scale(0.015625)"/>
        <path id="DejaVuSans-74" d="M 1172 4494 
L 1172 3500 
L 2356 3500 
L 2356 3053 
L 1172 3053 
L 1172 1153 
Q 1172 725 1289 603 
Q 1406 481 1766 481 
L 2356 481 
L 2356 0 
L 1766 0 
Q 1100 0 847 248 
Q 594 497 594 1153 
L 594 3053 
L 172 3053 
L 172 3500 
L 594 3500 
L 594 4494 
L 1172 4494 
z
" transform="scale(0.015625)"/>
       </defs>
       <use xlink:href="#DejaVuSans-46"/>
       <use xlink:href="#DejaVuSans-75" x="52.019531"/>
       <use xlink:href="#DejaVuSans-72" x="115.398438"/>
       <use xlink:href="#DejaVuSans-6e" x="154.761719"/>
       <use xlink:href="#DejaVuSans-69" x="218.140625"/>
       <use xlink:href="#DejaVuSans-74" x="245.923828"/>
       <use xlink:href="#DejaVuSans-75" x="285.132812"/>
       <use xlink:href="#DejaVuSans-72" x="348.511719"/>
       <use xlink:href="#DejaVuSans-65" x="387.375"/>
      </g>
     </g>
    </g>
    <g id="xtick_3">
     <g id="line2d_3">
      <g>
       <use xlink:href="#m7c910fa4a7" x="444" y="384.48" style="stroke: #000000; stroke-width: 0.8"/>
      </g>
     </g>
     <g id="text_3">
      <!-- Technology -->
      <g transform="translate(426.146106 436.46304) rotate(-45) scale(0.1 -0.1)">
       <defs>
        <path id="DejaVuSans-54" d="M -19 4666 
L 3928 4666 
L 3928 4134 
L 2272 4134 
L 2272 0 
L 1638 0 
L 1638 4134 
L -19 4134 
L -19 4666 
z
" transform="scale(0.015625)"/>
        <path id="DejaVuSans-68" d="M 3513 2113 
L 3513 0 
L 2938 0 
L 2938 2094 
Q 2938 2591 2744 2837 
Q 2550 3084 2163 3084 
Q 1697 3084 1428 2787 
Q 1159 2491 1159 1978 
L 1159 0 
L 581 0 
L 581 4863 
L 1159 4863 
L 1159 2956 
Q 1366 3272 1645 3428 
Q 1925 3584 2291 3584 
Q 2894 3584 3203 3211 
Q 3513 2838 3513 2113 
z
" transform="scale(0.015625)"/>
        <path id="DejaVuSans-6f" d="M 1959 3097 
Q 1497 3097 1228 2736 
Q 959 2375 959 1747 
Q 959 1119 1226 758 
Q 1494 397 1959 397 
Q 2419 397 2687 759 
Q 2956 1122 2956 1747 
Q 2956 2369 2687 2733 
Q 2419 3097 1959 3097 
z
M 1959 3584 
Q 2709 3584 3137 3096 
Q 3566 2609 3566 1747 
Q 3566 888 3137 398 
Q 2709 -91 1959 -91 
Q 1206 -91 779 398 
Q 353 888 353 1747 
Q 353 2609 779 3096 
Q 1206 3584 1959 3584 
z
" transform="scale(0.015625)"/>
        <path id="DejaVuSans-67" d="M 2906 1791 
Q 2906 2416 2648 2759 
Q 2391 3103 1925 3103 
Q 1463 3103 1205 2759 
Q 947 2416 947 1791 
Q 947 1169 1205 825 
Q 1463 481 1925 481 
Q 2391 481 2648 825 
Q 2906 1169 2906 1791 
z
M 3481 434 
Q 3481 -459 3084 -895 
Q 2688 -1331 1869 -1331 
Q 1566 -1331 1297 -1286 
Q 1028 -1241 775 -1147 
L 775 -588 
Q 1028 -725 1275 -790 
Q 1522 -856 1778 -856 
Q 2344 -856 2625 -561 
Q 2906 -266 2906 331 
L 2906 616 
Q 2728 306 2450 153 
Q 2172 0 1784 0 
Q 1141 0 747 490 
Q 353 981 353 1791 
Q 353 2603 747 3093 
Q 1141 3584 1784 3584 
Q 2172 3584 2450 3431 
Q 2728 3278 2906 2969 
L 2906 3500 
L 3481 3500 
L 3481 434 
z
" transform="scale(0.015625)"/>
        <path id="DejaVuSans-79" d="M 2059 -325 
Q 1816 -950 1584 -1140 
Q 1353 -1331 966 -1331 
L 506 -1331 
L 506 -850 
L 844 -850 
Q 1081 -850 1212 -737 
Q 1344 -625 1503 -206 
L 1606 56 
L 191 3500 
L 800 3500 
L 1894 763 
L 2988 3500 
L 3597 3500 
L 2059 -325 
z
" transform="scale(0.015625)"/>
       </defs>
       <use xlink:href="#DejaVuSans-54"/>
       <use xlink:href="#DejaVuSans-65" x="44.083984"/>
       <use xlink:href="#DejaVuSans-63" x="105.607422"/>
       <use xlink:href="#DejaVuSans-68" x="160.587891"/>
       <use xlink:href="#DejaVuSans-6e" x="223.966797"/>
       <use xlink:href="#DejaVuSans-6f" x="287.345703"/>
       <use xlink:href="#DejaVuSans-6c" x="348.527344"/>
       <use xlink:href="#DejaVuSans-6f" x="376.310547"/>
       <use xlink:href="#DejaVuSans-67" x="437.492188"/>
       <use xlink:href="#DejaVuSans-79" x="500.96875"/>
      </g>
     </g>
    </g>
    <g id="text_4">
     <!-- Category -->
     <g transform="translate(272.359375 462.828961) scale(0.1 -0.1)">
      <defs>
       <path id="DejaVuSans-43" d="M 4122 4306 
L 4122 3641 
Q 3803 3938 3442 4084 
Q 3081 4231 2675 4231 
Q 1875 4231 1450 3742 
Q 1025 3253 1025 2328 
Q 1025 1406 1450 917 
Q 1875 428 2675 428 
Q 3081 428 3442 575 
Q 3803 722 4122 1019 
L 4122 359 
Q 3791 134 3420 21 
Q 3050 -91 2638 -91 
Q 1578 -91 968 557 
Q 359 1206 359 2328 
Q 359 3453 968 4101 
Q 1578 4750 2638 4750 
Q 3056 4750 3426 4639 
Q 3797 4528 4122 4306 
z
" transform="scale(0.015625)"/>
       <path id="DejaVuSans-61" d="M 2194 1759 
Q 1497 1759 1228 1600 
Q 959 1441 959 1056 
Q 959 750 1161 570 
Q 1363 391 1709 391 
Q 2188 391 2477 730 
Q 2766 1069 2766 1631 
L 2766 1759 
L 2194 1759 
z
M 3341 1997 
L 3341 0 
L 2766 0 
L 2766 531 
Q 2569 213 2275 61 
Q 1981 -91 1556 -91 
Q 1019 -91 701 211 
Q 384 513 384 1019 
Q 384 1609 779 1909 
Q 1175 2209 1959 2209 
L 2766 2209 
L 2766 2266 
Q 2766 2663 2505 2880 
Q 2244 3097 1772 3097 
Q 1472 3097 1187 3025 
Q 903 2953 641 2809 
L 641 3341 
Q 956 3463 1253 3523 
Q 1550 3584 1831 3584 
Q 2591 3584 2966 3190 
Q 3341 2797 3341 1997 
z
" transform="scale(0.015625)"/>
      </defs>
      <use xlink:href="#DejaVuSans-43"/>
      <use xlink:href="#DejaVuSans-61" x="69.824219"/>
      <use xlink:href="#DejaVuSans-74" x="131.103516"/>
      <use xlink:href="#DejaVuSans-65" x="170.3125"/>
      <use xlink:href="#DejaVuSans-67" x="231.835938"/>
      <use xlink:href="#DejaVuSans-6f" x="295.3125"/>
      <use xlink:href="#DejaVuSans-72" x="356.494141"/>
      <use xlink:href="#DejaVuSans-79" x="397.607422"/>
     </g>
    </g>
   </g>
   <g id="matplotlib.axis_2">
    <g id="ytick_1">
     <g id="line2d_4">
      <defs>
       <path id="m766b3f1448" d="M 0 0 
L -3.5 0 
" style="stroke: #000000; stroke-width: 0.8"/>
      </defs>
      <g>
       <use xlink:href="#m766b3f1448" x="72" y="369.661516" style="stroke: #000000; stroke-width: 0.8"/>
      </g>
     </g>
     <g id="text_5">
      <!-- 0 -->
      <g transform="translate(58.6375 373.460735) scale(0.1 -0.1)">
       <defs>
        <path id="DejaVuSans-30" d="M 2034 4250 
Q 1547 4250 1301 3770 
Q 1056 3291 1056 2328 
Q 1056 1369 1301 889 
Q 1547 409 2034 409 
Q 2525 409 2770 889 
Q 3016 1369 3016 2328 
Q 3016 3291 2770 3770 
Q 2525 4250 2034 4250 
z
M 2034 4750 
Q 2819 4750 3233 4129 
Q 3647 3509 3647 2328 
Q 3647 1150 3233 529 
Q 2819 -91 2034 -91 
Q 1250 -91 836 529 
Q 422 1150 422 2328 
Q 422 3509 836 4129 
Q 1250 4750 2034 4750 
z
" transform="scale(0.015625)"/>
       </defs>
       <use xlink:href="#DejaVuSans-30"/>
      </g>
     </g>
    </g>
    <g id="ytick_2">
     <g id="line2d_5">
      <g>
       <use xlink:href="#m766b3f1448" x="72" y="329.261112" style="stroke: #000000; stroke-width: 0.8"/>
      </g>
     </g>
     <g id="text_6">
      <!-- 2 -->
      <g transform="translate(58.6375 333.06033) scale(0.1 -0.1)">
       <defs>
        <path id="DejaVuSans-32" d="M 1228 531 
L 3431 531 
L 3431 0 
L 469 0 
L 469 531 
Q 828 903 1448 1529 
Q 2069 2156 2228 2338 
Q 2531 2678 2651 2914 
Q 2772 3150 2772 3378 
Q 2772 3750 2511 3984 
Q 2250 4219 1831 4219 
Q 1534 4219 1204 4116 
Q 875 4013 500 3803 
L 500 4441 
Q 881 4594 1212 4672 
Q 1544 4750 1819 4750 
Q 2544 4750 2975 4387 
Q 3406 4025 3406 3419 
Q 3406 3131 3298 2873 
Q 3191 2616 2906 2266 
Q 2828 2175 2409 1742 
Q 1991 1309 1228 531 
z
" transform="scale(0.015625)"/>
       </defs>
       <use xlink:href="#DejaVuSans-32"/>
      </g>
     </g>
    </g>
    <g id="ytick_3">
     <g id="line2d_6">
      <g>
       <use xlink:href="#m766b3f1448" x="72" y="288.860707" style="stroke: #000000; stroke-width: 0.8"/>
      </g>
     </g>
     <g id="text_7">
      <!-- 4 -->
      <g transform="translate(58.6375 292.659926) scale(0.1 -0.1)">
       <defs>
        <path id="DejaVuSans-34" d="M 2419 4116 
L 825 1625 
L 2419 1625 
L 2419 4116 
z
M 2253 4666 
L 3047 4666 
L 3047 1625 
L 3713 1625 
L 3713 1100 
L 3047 1100 
L 3047 0 
L 2419 0 
L 2419 1100 
L 313 1100 
L 313 1709 
L 2253 4666 
z
" transform="scale(0.015625)"/>
       </defs>
       <use xlink:href="#DejaVuSans-34"/>
      </g>
     </g>
    </g>
    <g id="ytick_4">
     <g id="line2d_7">
      <g>
       <use xlink:href="#m766b3f1448" x="72" y="248.460303" style="stroke: #000000; stroke-width: 0.8"/>
      </g>
     </g>
     <g id="text_8">
      <!-- 6 -->
      <g transform="translate(58.6375 252.259522) scale(0.1 -0.1)">
       <defs>
        <path id="DejaVuSans-36" d="M 2113 2584 
Q 1688 2584 1439 2293 
Q 1191 2003 1191 1497 
Q 1191 994 1439 701 
Q 1688 409 2113 409 
Q 2538 409 2786 701 
Q 3034 994 3034 1497 
Q 3034 2003 2786 2293 
Q 2538 2584 2113 2584 
z
M 3366 4563 
L 3366 3988 
Q 3128 4100 2886 4159 
Q 2644 4219 2406 4219 
Q 1781 4219 1451 3797 
Q 1122 3375 1075 2522 
Q 1259 2794 1537 2939 
Q 1816 3084 2150 3084 
Q 2853 3084 3261 2657 
Q 3669 2231 3669 1497 
Q 3669 778 3244 343 
Q 2819 -91 2113 -91 
Q 1303 -91 875 529 
Q 447 1150 447 2328 
Q 447 3434 972 4092 
Q 1497 4750 2381 4750 
Q 2619 4750 2861 4703 
Q 3103 4656 3366 4563 
z
" transform="scale(0.015625)"/>
       </defs>
       <use xlink:href="#DejaVuSans-36"/>
      </g>
     </g>
    </g>
    <g id="ytick_5">
     <g id="line2d_8">
      <g>
       <use xlink:href="#m766b3f1448" x="72" y="208.059899" style="stroke: #000000; stroke-width: 0.8"/>
      </g>
     </g>
     <g id="text_9">
      <!-- 8 -->
      <g transform="translate(58.6375 211.859118) scale(0.1 -0.1)">
       <defs>
        <path id="DejaVuSans-38" d="M 2034 2216 
Q 1584 2216 1326 1975 
Q 1069 1734 1069 1313 
Q 1069 891 1326 650 
Q 1584 409 2034 409 
Q 2484 409 2743 651 
Q 3003 894 3003 1313 
Q 3003 1734 2745 1975 
Q 2488 2216 2034 2216 
z
M 1403 2484 
Q 997 2584 770 2862 
Q 544 3141 544 3541 
Q 544 4100 942 4425 
Q 1341 4750 2034 4750 
Q 2731 4750 3128 4425 
Q 3525 4100 3525 3541 
Q 3525 3141 3298 2862 
Q 3072 2584 2669 2484 
Q 3125 2378 3379 2068 
Q 3634 1759 3634 1313 
Q 3634 634 3220 271 
Q 2806 -91 2034 -91 
Q 1263 -91 848 271 
Q 434 634 434 1313 
Q 434 1759 690 2068 
Q 947 2378 1403 2484 
z
M 1172 3481 
Q 1172 3119 1398 2916 
Q 1625 2713 2034 2713 
Q 2441 2713 2670 2916 
Q 2900 3119 2900 3481 
Q 2900 3844 2670 4047 
Q 2441 4250 2034 4250 
Q 1625 4250 1398 4047 
Q 1172 3844 1172 3481 
z
" transform="scale(0.015625)"/>
       </defs>
       <use xlink:href="#DejaVuSans-38"/>
      </g>
     </g>
    </g>
    <g id="ytick_6">
     <g id="line2d_9">
      <g>
       <use xlink:href="#m766b3f1448" x="72" y="167.659495" style="stroke: #000000; stroke-width: 0.8"/>
      </g>
     </g>
     <g id="text_10">
      <!-- 10 -->
      <g transform="translate(52.275 171.458713) scale(0.1 -0.1)">
       <defs>
        <path id="DejaVuSans-31" d="M 794 531 
L 1825 531 
L 1825 4091 
L 703 3866 
L 703 4441 
L 1819 4666 
L 2450 4666 
L 2450 531 
L 3481 531 
L 3481 0 
L 794 0 
L 794 531 
z
" transform="scale(0.015625)"/>
       </defs>
       <use xlink:href="#DejaVuSans-31"/>
       <use xlink:href="#DejaVuSans-30" x="63.623047"/>
      </g>
     </g>
    </g>
    <g id="ytick_7">
     <g id="line2d_10">
      <g>
       <use xlink:href="#m766b3f1448" x="72" y="127.25909" style="stroke: #000000; stroke-width: 0.8"/>
      </g>
     </g>
     <g id="text_11">
      <!-- 12 -->
      <g transform="translate(52.275 131.058309) scale(0.1 -0.1)">
       <use xlink:href="#DejaVuSans-31"/>
       <use xlink:href="#DejaVuSans-32" x="63.623047"/>
      </g>
     </g>
    </g>
    <g id="ytick_8">
     <g id="line2d_11">
      <g>
       <use xlink:href="#m766b3f1448" x="72" y="86.858686" style="stroke: #000000; stroke-width: 0.8"/>
      </g>
     </g>
     <g id="text_12">
      <!-- 14 -->
      <g transform="translate(52.275 90.657905) scale(0.1 -0.1)">
       <use xlink:href="#DejaVuSans-31"/>
       <use xlink:href="#DejaVuSans-34" x="63.623047"/>
      </g>
     </g>
    </g>
    <g id="text_13">
     <!-- Quantity -->
     <g transform="translate(46.195312 239.76625) rotate(-90) scale(0.1 -0.1)">
      <defs>
       <path id="DejaVuSans-51" d="M 2522 4238 
Q 1834 4238 1429 3725 
Q 1025 3213 1025 2328 
Q 1025 1447 1429 934 
Q 1834 422 2522 422 
Q 3209 422 3611 934 
Q 4013 1447 4013 2328 
Q 4013 3213 3611 3725 
Q 3209 4238 2522 4238 
z
M 3406 84 
L 4238 -825 
L 3475 -825 
L 2784 -78 
Q 2681 -84 2626 -87 
Q 2572 -91 2522 -91 
Q 1538 -91 948 567 
Q 359 1225 359 2328 
Q 359 3434 948 4092 
Q 1538 4750 2522 4750 
Q 3503 4750 4090 4092 
Q 4678 3434 4678 2328 
Q 4678 1516 4351 937 
Q 4025 359 3406 84 
z
" transform="scale(0.015625)"/>
      </defs>
      <use xlink:href="#DejaVuSans-51"/>
      <use xlink:href="#DejaVuSans-75" x="78.710938"/>
      <use xlink:href="#DejaVuSans-61" x="142.089844"/>
      <use xlink:href="#DejaVuSans-6e" x="203.369141"/>
      <use xlink:href="#DejaVuSans-74" x="266.748047"/>
      <use xlink:href="#DejaVuSans-69" x="305.957031"/>
      <use xlink:href="#DejaVuSans-74" x="333.740234"/>
      <use xlink:href="#DejaVuSans-79" x="372.949219"/>
     </g>
    </g>
   </g>
   <g id="line2d_12">
    <path d="M 146.4 349.461314 
L 146.4 187.859697 
" clip-path="url(#p33094dff4e)" style="fill: none; stroke: #6e6e6e; stroke-width: 1.875; stroke-linecap: square"/>
   </g>
   <g id="line2d_13">
    <path d="M 146.4 329.261112 
L 146.4 268.660505 
" clip-path="url(#p33094dff4e)" style="fill: none; stroke: #6e6e6e; stroke-width: 5.625; stroke-linecap: square"/>
   </g>
   <g id="line2d_14">
    <path d="M 146.4 309.06091 
" clip-path="url(#p33094dff4e)" style="fill: none; stroke: #6e6e6e; stroke-width: 1.5; stroke-linecap: square"/>
    <defs>
     <path id="m710a1e030b" d="M 2.34375 0 
L -2.34375 -0 
" style="stroke: #ffffff; stroke-width: 1.125"/>
    </defs>
    <g clip-path="url(#p33094dff4e)">
     <use xlink:href="#m710a1e030b" x="146.4" y="309.06091" style="fill: #ffffff; stroke: #ffffff; stroke-width: 1.125"/>
    </g>
   </g>
   <g id="line2d_15">
    <path d="M 295.2 349.461314 
L 295.2 187.859697 
" clip-path="url(#p33094dff4e)" style="fill: none; stroke: #6e6e6e; stroke-width: 1.875; stroke-linecap: square"/>
   </g>
   <g id="line2d_16">
    <path d="M 295.2 329.261112 
L 295.2 268.660505 
" clip-path="url(#p33094dff4e)" style="fill: none; stroke: #6e6e6e; stroke-width: 5.625; stroke-linecap: square"/>
   </g>
   <g id="line2d_17">
    <path d="M 295.2 309.06091 
" clip-path="url(#p33094dff4e)" style="fill: none; stroke: #6e6e6e; stroke-width: 1.5; stroke-linecap: square"/>
    <g clip-path="url(#p33094dff4e)">
     <use xlink:href="#m710a1e030b" x="295.2" y="309.06091" style="fill: #ffffff; stroke: #ffffff; stroke-width: 1.125"/>
    </g>
   </g>
   <g id="line2d_18">
    <path d="M 444 349.461314 
L 444 187.859697 
" clip-path="url(#p33094dff4e)" style="fill: none; stroke: #6e6e6e; stroke-width: 1.875; stroke-linecap: square"/>
   </g>
   <g id="line2d_19">
    <path d="M 444 329.261112 
L 444 268.660505 
" clip-path="url(#p33094dff4e)" style="fill: none; stroke: #6e6e6e; stroke-width: 5.625; stroke-linecap: square"/>
   </g>
   <g id="line2d_20">
    <path d="M 444 309.06091 
" clip-path="url(#p33094dff4e)" style="fill: none; stroke: #6e6e6e; stroke-width: 1.5; stroke-linecap: square"/>
    <g clip-path="url(#p33094dff4e)">
     <use xlink:href="#m710a1e030b" x="444" y="309.06091" style="fill: #ffffff; stroke: #ffffff; stroke-width: 1.125"/>
    </g>
   </g>
   <g id="patch_3">
    <path d="M 72 384.48 
L 72 51.84 
" style="fill: none; stroke: #000000; stroke-width: 0.8; stroke-linejoin: miter; stroke-linecap: square"/>
   </g>
   <g id="patch_4">
    <path d="M 518.4 384.48 
L 518.4 51.84 
" style="fill: none; stroke: #000000; stroke-width: 0.8; stroke-linejoin: miter; stroke-linecap: square"/>
   </g>
   <g id="patch_5">
    <path d="M 72 384.48 
L 518.4 384.48 
" style="fill: none; stroke: #000000; stroke-width: 0.8; stroke-linejoin: miter; stroke-linecap: square"/>
   </g>
   <g id="patch_6">
    <path d="M 72 51.84 
L 518.4 51.84 
" style="fill: none; stroke: #000000; stroke-width: 0.8; stroke-linejoin: miter; stroke-linecap: square"/>
   </g>
   <g id="text_14">
    <!-- Units Sold by Product Category -->
    <g transform="translate(201.730312 45.84) scale(0.12 -0.12)">
     <defs>
      <path id="DejaVuSans-55" d="M 556 4666 
L 1191 4666 
L 1191 1831 
Q 1191 1081 1462 751 
Q 1734 422 2344 422 
Q 2950 422 3222 751 
Q 3494 1081 3494 1831 
L 3494 4666 
L 4128 4666 
L 4128 1753 
Q 4128 841 3676 375 
Q 3225 -91 2344 -91 
Q 1459 -91 1007 375 
Q 556 841 556 1753 
L 556 4666 
z
" transform="scale(0.015625)"/>
      <path id="DejaVuSans-64" d="M 2906 2969 
L 2906 4863 
L 3481 4863 
L 3481 0 
L 2906 0 
L 2906 525 
Q 2725 213 2448 61 
Q 2172 -91 1784 -91 
Q 1150 -91 751 415 
Q 353 922 353 1747 
Q 353 2572 751 3078 
Q 1150 3584 1784 3584 
Q 2172 3584 2448 3432 
Q 2725 3281 2906 2969 
z
M 947 1747 
Q 947 1113 1208 752 
Q 1469 391 1925 391 
Q 2381 391 2643 752 
Q 2906 1113 2906 1747 
Q 2906 2381 2643 2742 
Q 2381 3103 1925 3103 
Q 1469 3103 1208 2742 
Q 947 2381 947 1747 
z
" transform="scale(0.015625)"/>
      <path id="DejaVuSans-62" d="M 3116 1747 
Q 3116 2381 2855 2742 
Q 2594 3103 2138 3103 
Q 1681 3103 1420 2742 
Q 1159 2381 1159 1747 
Q 1159 1113 1420 752 
Q 1681 391 2138 391 
Q 2594 391 2855 752 
Q 3116 1113 3116 1747 
z
M 1159 2969 
Q 1341 3281 1617 3432 
Q 1894 3584 2278 3584 
Q 2916 3584 3314 3078 
Q 3713 2572 3713 1747 
Q 3713 922 3314 415 
Q 2916 -91 2278 -91 
Q 1894 -91 1617 61 
Q 1341 213 1159 525 
L 1159 0 
L 581 0 
L 581 4863 
L 1159 4863 
L 1159 2969 
z
" transform="scale(0.015625)"/>
      <path id="DejaVuSans-50" d="M 1259 4147 
L 1259 2394 
L 2053 2394 
Q 2494 2394 2734 2622 
Q 2975 2850 2975 3272 
Q 2975 3691 2734 3919 
Q 2494 4147 2053 4147 
L 1259 4147 
z
M 628 4666 
L 2053 4666 
Q 2838 4666 3239 4311 
Q 3641 3956 3641 3272 
Q 3641 2581 3239 2228 
Q 2838 1875 2053 1875 
L 1259 1875 
L 1259 0 
L 628 0 
L 628 4666 
z
" transform="scale(0.015625)"/>
     </defs>
     <use xlink:href="#DejaVuSans-55"/>
     <use xlink:href="#DejaVuSans-6e" x="73.193359"/>
     <use xlink:href="#DejaVuSans-69" x="136.572266"/>
     <use xlink:href="#DejaVuSans-74" x="164.355469"/>
     <use xlink:href="#DejaVuSans-73" x="203.564453"/>
     <use xlink:href="#DejaVuSans-20" x="255.664062"/>
     <use xlink:href="#DejaVuSans-53" x="287.451172"/>
     <use xlink:href="#DejaVuSans-6f" x="350.927734"/>
     <use xlink:href="#DejaVuSans-6c" x="412.109375"/>
     <use xlink:href="#DejaVuSans-64" x="439.892578"/>
     <use xlink:href="#DejaVuSans-20" x="503.369141"/>
     <use xlink:href="#DejaVuSans-62" x="535.15625"/>
     <use xlink:href="#DejaVuSans-79" x="598.632812"/>
     <use xlink:href="#DejaVuSans-20" x="657.8125"/>
     <use xlink:href="#DejaVuSans-50" x="689.599609"/>
     <use xlink:href="#DejaVuSans-72" x="748.152344"/>
     <use xlink:href="#DejaVuSans-6f" x="787.015625"/>
     <use xlink:href="#DejaVuSans-64" x="848.197266"/>
     <use xlink:href="#DejaVuSans-75" x="911.673828"/>
     <use xlink:href="#DejaVuSans-63" x="975.052734"/>
     <use xlink:href="#DejaVuSans-74" x="1030.033203"/>
     <use xlink:href="#DejaVuSans-20" x="1069.242188"/>
     <use xlink:href="#DejaVuSans-43" x="1101.029297"/>
     <use xlink:href="#DejaVuSans-61" x="1170.853516"/>
     <use xlink:href="#DejaVuSans-74" x="1232.132812"/>
     <use xlink:href="#DejaVuSans-65" x="1271.341797"/>
     <use xlink:href="#DejaVuSans-67" x="1332.865234"/>
     <use xlink:href="#DejaVuSans-6f" x="1396.341797"/>
     <use xlink:href="#DejaVuSans-72" x="1457.523438"/>
     <use xlink:href="#DejaVuSans-79" x="1498.636719"/>
    </g>
   </g>
  </g>
 </g>
 <defs>
  <clipPath id="p33094dff4e">
   <rect x="72" y="51.84" width="446.4" height="332.64"/>
  </clipPath>
 </defs>
</svg>
